<svg xmlns="http://www.w3.org/2000/svg" xmlns:xlink="http://www.w3.org/1999/xlink" width="500" zoomAndPan="magnify" viewBox="0 0 375 374.999991" height="500" preserveAspectRatio="xMidYMid meet" version="1.0"><defs><g/><clipPath id="119f275826"><path d="M 97.375 59 L 200.875 59 L 200.875 235.902344 L 97.375 235.902344 Z M 97.375 59 " clip-rule="nonzero"/></clipPath><clipPath id="417f0c3d01"><path d="M 118.046875 147.5625 L 295.046875 147.5625 L 295.046875 245 L 118.046875 245 Z M 118.046875 147.5625 " clip-rule="nonzero"/></clipPath><clipPath id="a53aa28b91"><path d="M 189.863281 122.164062 L 192 122.164062 L 192 203.914062 L 189.863281 203.914062 Z M 189.863281 122.164062 " clip-rule="nonzero"/></clipPath><clipPath id="f52dd7befe"><path d="M 191 122.164062 L 232 122.164062 L 232 140 L 191 140 Z M 191 122.164062 " clip-rule="nonzero"/></clipPath></defs><rect x="-37.5" width="450" fill="#ffffff" y="-37.499999" height="449.999989" fill-opacity="1"/><rect x="-37.5" width="450" fill="#ffffff" y="-37.499999" height="449.999989" fill-opacity="1"/><rect x="-37.5" width="450" fill="#ffffff" y="-37.499999" height="449.999989" fill-opacity="1"/><g clip-path="url(#119f275826)"><path fill="#f94616" d="M 135.972656 179.964844 C 138.125 185.625 136.1875 190.664062 133.730469 195.625 C 131.511719 200.101562 129.210938 204.535156 127.476562 209.238281 C 125.78125 213.839844 124.894531 218.566406 125.800781 223.390625 C 126.628906 227.808594 128.832031 231.527344 132.898438 233.863281 C 133.007812 233.925781 133.125 233.972656 133.292969 234.050781 C 132.84375 234.308594 132.613281 234.113281 132.386719 234.023438 C 129.015625 232.714844 125.71875 231.261719 122.785156 229.097656 C 122.339844 228.769531 121.914062 228.40625 121.4375 228.128906 C 117.449219 225.8125 114.082031 222.757812 111.167969 219.222656 C 107.71875 215.03125 104.78125 210.519531 103.480469 205.15625 C 101.78125 198.136719 101.632812 191.070312 102.984375 183.964844 C 104.308594 176.996094 107.496094 170.828125 111.324219 164.992188 C 114.265625 160.503906 117.425781 156.160156 119.761719 151.308594 C 122.214844 146.195312 123.015625 140.871094 121.765625 135.269531 C 121.425781 133.738281 121.03125 132.265625 120.277344 130.878906 C 119.820312 130.046875 120.027344 129.75 120.953125 129.742188 C 122.179688 129.730469 123.195312 130.285156 124.164062 130.957031 C 129.09375 134.378906 131.308594 139.382812 132.433594 145.046875 C 133.148438 148.625 133.144531 152.210938 132.761719 155.824219 C 132.578125 157.566406 132.40625 159.320312 132.582031 161.082031 C 132.671875 161.972656 132.9375 162.804688 133.378906 163.574219 C 134.097656 164.828125 135.292969 165.113281 136.414062 164.214844 C 137.652344 163.21875 138.265625 161.867188 138.535156 160.285156 C 139.695312 153.386719 138.078125 146.757812 136.589844 140.132812 C 135.4375 134.996094 134.769531 129.816406 134.761719 124.566406 C 134.746094 117.449219 137.390625 111.179688 141.265625 105.363281 C 142.402344 103.65625 143.625 102.007812 144.882812 100.390625 C 147.207031 97.40625 149.28125 94.261719 151.238281 91.03125 C 153.957031 86.535156 155.085938 81.738281 154.421875 76.46875 C 154.015625 73.226562 153.253906 70.128906 151.589844 67.324219 C 149.820312 64.351562 147.296875 62.230469 143.9375 61.171875 C 143.261719 60.960938 142.199219 60.851562 142.394531 59.886719 C 142.585938 58.9375 143.65625 59.246094 144.300781 59.316406 C 148.398438 59.769531 151.945312 61.496094 155.03125 64.207031 C 156.625 65.605469 158.019531 67.1875 159.265625 68.910156 C 161.960938 72.632812 164.253906 76.566406 165.476562 81.03125 C 166.539062 84.914062 166.761719 88.867188 166.5 92.882812 C 165.996094 100.539062 163.777344 107.804688 161.714844 115.121094 C 161.011719 117.609375 160.253906 120.125 160.148438 122.742188 C 160.070312 124.742188 160.269531 126.710938 161.25 128.515625 C 162.34375 130.523438 164.144531 131.363281 166.335938 131.363281 C 168.34375 131.363281 169.417969 129.988281 170.183594 128.371094 C 171.5625 125.457031 172.851562 122.523438 172.664062 119.167969 C 172.550781 117.175781 172.207031 115.242188 171.644531 113.335938 C 171.578125 113.105469 171.320312 112.847656 171.582031 112.628906 C 171.800781 112.449219 172.074219 112.589844 172.316406 112.691406 C 174.121094 113.4375 175.296875 114.851562 176.273438 116.457031 C 180.050781 122.65625 181.066406 129.515625 180.925781 136.609375 C 180.71875 147.019531 178.195312 156.988281 174.953125 166.8125 C 173.527344 171.128906 172.015625 175.421875 171.039062 179.871094 C 170.589844 181.917969 170.375 183.96875 171.070312 186.03125 C 171.523438 187.382812 172.476562 188.183594 173.6875 188.753906 C 174.3125 189.050781 174.960938 188.976562 175.574219 188.675781 C 176.632812 188.160156 177.410156 187.355469 177.972656 186.324219 C 179.667969 183.234375 180.523438 179.847656 181.203125 176.449219 C 182.164062 171.640625 182.792969 166.769531 182.6875 161.839844 C 182.632812 159.398438 182.589844 156.960938 182.558594 154.519531 C 182.554688 154.121094 182.371094 153.609375 182.890625 153.398438 C 183.433594 153.183594 183.824219 153.53125 184.160156 153.90625 C 185.5 155.40625 186.441406 157.160156 187.078125 159.042969 C 188.585938 163.480469 189.316406 168.085938 189.410156 172.746094 C 189.507812 177.675781 188.652344 182.515625 187.226562 187.238281 C 186.484375 189.683594 186.09375 192.175781 186.132812 194.726562 C 186.152344 195.792969 186.394531 196.785156 187.183594 197.582031 C 188.417969 198.832031 190.054688 198.820312 191.199219 197.5 C 192.476562 196.019531 192.882812 194.152344 193.335938 192.332031 C 194.195312 188.890625 193.679688 185.566406 192.316406 182.339844 C 192.214844 182.101562 192.128906 181.855469 192.066406 181.605469 C 192 181.335938 192.078125 181.085938 192.292969 180.898438 C 192.546875 180.675781 192.773438 180.84375 193 180.972656 C 193.84375 181.457031 194.457031 182.199219 194.976562 182.96875 C 196.101562 184.636719 197.367188 186.226562 198.253906 188.046875 C 200.4375 192.523438 200.882812 197.234375 200.117188 202.109375 C 198.648438 211.453125 193.972656 218.789062 186.460938 224.484375 C 180.582031 228.945312 174.144531 232.3125 167.28125 234.933594 C 166.53125 235.21875 165.734375 235.378906 164.949219 235.566406 C 164.707031 235.621094 164.34375 235.871094 164.21875 235.417969 C 164.117188 235.058594 164.511719 235.089844 164.695312 234.992188 C 168.289062 233.007812 171.714844 230.761719 174.824219 228.089844 C 179.097656 224.421875 182.234375 219.988281 183.296875 214.332031 C 183.777344 211.78125 183.414062 209.25 182.5625 206.84375 C 181.546875 203.976562 180.410156 201.136719 178.550781 198.667969 C 178.511719 198.617188 178.484375 198.550781 178.4375 198.507812 C 178.042969 198.171875 177.742188 197.410156 177.171875 197.710938 C 176.8125 197.902344 177.21875 198.570312 177.332031 199.015625 C 177.679688 200.421875 178.132812 201.8125 178.359375 203.234375 C 178.753906 205.730469 177.453125 207.546875 175.488281 208.757812 C 173.964844 209.699219 172.269531 209.394531 170.722656 208.429688 C 168.613281 207.113281 166.984375 205.324219 165.566406 203.320312 C 161.609375 197.726562 158.613281 191.644531 156.863281 185.03125 C 154.742188 177.023438 154.730469 168.9375 156.6875 160.859375 C 157.246094 158.554688 157.917969 156.289062 158.675781 154.046875 C 158.746094 153.828125 158.820312 153.617188 158.886719 153.398438 C 159.003906 153.007812 158.90625 152.667969 158.5625 152.464844 C 158.25 152.277344 157.917969 152.367188 157.667969 152.621094 C 157.300781 152.988281 156.917969 153.351562 156.613281 153.769531 C 152.769531 159.074219 149.828125 164.800781 148.5625 171.28125 C 148.050781 173.886719 148.160156 176.519531 148.496094 179.140625 C 148.730469 180.9375 148.960938 182.742188 149.324219 184.519531 C 149.703125 186.382812 150.230469 188.214844 150.714844 190.054688 C 151.347656 192.4375 151.296875 194.804688 150.582031 197.15625 C 150.09375 198.753906 149.328125 200.117188 147.492188 200.402344 C 145.546875 200.703125 144.113281 199.738281 143.121094 198.230469 C 141.6875 196.058594 141.101562 193.636719 141.558594 191.019531 C 142.289062 186.8125 139.863281 181.972656 135.972656 179.964844 Z M 140.785156 113.390625 C 140.652344 113.441406 140.566406 113.445312 140.542969 113.488281 C 140.445312 113.652344 140.335938 113.820312 140.292969 114 C 139.300781 117.941406 138.476562 121.910156 138.285156 125.980469 C 138.105469 129.6875 138.820312 133.296875 139.726562 136.867188 C 140.4375 139.664062 141.496094 142.382812 141.597656 145.3125 C 141.605469 145.515625 141.628906 145.71875 141.890625 145.730469 C 142.269531 145.75 142.175781 145.441406 142.171875 145.246094 C 142.164062 143.917969 142.101562 142.59375 142.023438 141.265625 C 141.851562 138.257812 141.363281 135.300781 140.691406 132.386719 C 139.464844 127.042969 139.386719 121.707031 140.359375 116.324219 C 140.53125 115.375 140.902344 114.421875 140.785156 113.390625 Z M 109.398438 177.242188 C 108.871094 177.351562 108.816406 177.742188 108.664062 178.046875 C 106.523438 182.347656 105.550781 186.878906 105.816406 191.699219 C 105.957031 194.210938 106.585938 196.523438 107.875 198.667969 C 108.015625 198.898438 108.085938 199.347656 108.4375 199.195312 C 108.714844 199.078125 108.5625 198.703125 108.484375 198.421875 C 107.882812 196.296875 107.644531 194.125 107.589844 191.917969 C 107.546875 190.386719 107.6875 188.867188 107.828125 187.355469 C 108.023438 185.304688 108.089844 183.230469 108.535156 181.207031 C 108.820312 179.902344 109.105469 178.597656 109.398438 177.242188 Z M 133.484375 188.667969 C 132.941406 189.59375 132.578125 190.566406 131.976562 191.441406 C 130.160156 194.0625 128.390625 196.710938 127.046875 199.625 C 125.4375 203.125 124.074219 206.675781 123.863281 210.570312 C 123.847656 210.839844 123.6875 211.269531 124.066406 211.316406 C 124.488281 211.371094 124.382812 210.929688 124.402344 210.664062 C 124.5 209.273438 124.847656 207.9375 125.328125 206.636719 C 127.042969 202.019531 129.5 197.777344 131.984375 193.546875 C 132.871094 192.042969 133.394531 190.417969 133.484375 188.667969 Z M 159.089844 161.03125 C 158.515625 161.925781 158.453125 162.707031 158.34375 163.496094 C 157.863281 166.941406 157.15625 170.347656 157.578125 173.886719 C 158.011719 177.542969 158.457031 181.15625 160.265625 184.441406 C 160.371094 184.636719 160.332031 185.082031 160.710938 184.933594 C 161.089844 184.789062 160.761719 184.460938 160.699219 184.277344 C 159.785156 181.75 159.210938 179.160156 158.949219 176.480469 C 158.550781 172.371094 158.4375 168.273438 158.9375 164.160156 C 159.050781 163.214844 159.3125 162.246094 159.089844 161.03125 Z M 163.488281 86.757812 C 163.488281 87.398438 163.410156 87.945312 163.503906 88.460938 C 163.886719 90.605469 163.71875 92.726562 163.164062 94.800781 C 162.230469 98.300781 161.195312 101.773438 160.246094 105.269531 C 160.167969 105.570312 159.707031 106.078125 160.164062 106.234375 C 160.59375 106.378906 160.613281 105.71875 160.765625 105.398438 C 161.273438 104.355469 161.707031 103.277344 162.21875 102.234375 C 164.453125 97.691406 164.730469 92.875 164.230469 87.949219 C 164.1875 87.539062 164.054688 87.078125 163.488281 86.757812 Z M 196.4375 205.234375 C 196.085938 205.90625 195.753906 206.433594 195.527344 207.003906 C 194.5625 209.425781 193.539062 211.808594 192.0625 213.980469 C 191.230469 215.207031 190.535156 216.527344 189.496094 217.609375 C 189.378906 217.730469 189.15625 217.894531 189.34375 218.097656 C 189.511719 218.28125 189.703125 218.140625 189.863281 218.03125 C 189.996094 217.941406 190.113281 217.828125 190.230469 217.714844 C 192.988281 215.03125 194.957031 211.84375 196.191406 208.210938 C 196.492188 207.324219 196.910156 206.386719 196.4375 205.234375 Z M 158.90625 150.199219 C 159.851562 149.585938 160.097656 148.789062 160.554688 148.160156 C 162.089844 146.050781 163.566406 143.902344 164.488281 141.433594 C 164.617188 141.085938 164.851562 140.753906 164.515625 140.257812 C 162.398438 143.398438 160.199219 146.382812 158.90625 150.199219 Z M 141.988281 152.691406 C 141.988281 153.179688 141.992188 153.664062 141.984375 154.152344 C 141.980469 154.40625 142.070312 154.652344 142.300781 154.6875 C 142.640625 154.738281 142.726562 154.398438 142.738281 154.164062 C 142.773438 153.484375 142.832031 152.789062 142.71875 152.128906 C 142.652344 151.726562 142.722656 150.925781 142.300781 150.972656 C 141.703125 151.039062 142.085938 151.773438 141.992188 152.207031 C 141.957031 152.359375 141.984375 152.53125 141.988281 152.691406 Z M 98.425781 213.535156 C 99.40625 217.355469 101.628906 220.1875 105.058594 222.105469 C 106.246094 222.773438 107.332031 223.597656 108.453125 224.371094 C 111.328125 226.351562 114.097656 228.492188 117.136719 230.230469 C 117.363281 230.359375 117.652344 230.6875 117.886719 230.3125 C 118.085938 229.996094 117.703125 229.894531 117.511719 229.75 C 114.855469 227.71875 112.292969 225.570312 109.925781 223.210938 C 106.855469 220.160156 104.003906 216.917969 101.960938 213.0625 C 99.816406 209.019531 98.964844 204.628906 98.613281 200.117188 C 98.519531 198.957031 98.351562 197.800781 98.222656 196.644531 C 98.195312 196.394531 98.109375 196.175781 97.839844 196.171875 C 97.570312 196.171875 97.464844 196.394531 97.457031 196.644531 C 97.449219 196.835938 97.453125 197.035156 97.476562 197.226562 C 97.707031 199.03125 97.847656 200.835938 97.839844 202.65625 C 97.828125 204.503906 97.835938 206.351562 97.835938 208.199219 C 97.382812 210.054688 97.976562 211.777344 98.425781 213.535156 Z M 116.777344 135.367188 C 116.773438 135.0625 116.703125 134.707031 116.351562 134.714844 C 115.964844 134.722656 116.003906 135.101562 116.003906 135.390625 C 116.019531 138.890625 114.972656 142.191406 114.085938 145.523438 C 113.359375 148.265625 111.714844 150.597656 110.523438 153.128906 C 109.535156 155.226562 108.75 157.453125 107.195312 159.230469 C 105.613281 161.035156 104.328125 163.085938 102.570312 164.746094 C 102.351562 164.953125 102.003906 165.167969 102.238281 165.558594 C 102.5 165.992188 102.875 165.753906 103.191406 165.644531 C 104.40625 165.222656 105.460938 164.523438 106.261719 163.527344 C 107.265625 162.285156 108.363281 161.136719 109.464844 159.984375 C 110.335938 159.070312 111.132812 158.085938 111.78125 156.992188 C 115.304688 151.082031 116.5 144.558594 116.777344 137.804688 C 116.777344 136.992188 116.785156 136.179688 116.777344 135.367188 Z M 137.730469 233.648438 C 135.726562 232.515625 134.71875 230.574219 133.664062 228.667969 C 132.121094 225.878906 131.183594 222.90625 131.082031 219.71875 C 130.933594 215.183594 131.808594 210.773438 132.886719 206.394531 C 132.984375 206 133.160156 205.550781 132.707031 205.382812 C 132.277344 205.21875 132.15625 205.726562 131.996094 206.023438 C 131.117188 207.617188 130.695312 209.386719 130.113281 211.089844 C 128.871094 214.71875 127.953125 218.378906 128.683594 222.285156 C 129.496094 226.628906 131.410156 230.269531 135.019531 232.925781 C 135.855469 233.539062 136.746094 233.988281 137.886719 233.964844 C 137.8125 233.804688 137.796875 233.683594 137.730469 233.648438 Z M 171.777344 83.726562 C 171.289062 81.03125 170.105469 78.675781 168.402344 76.554688 C 168.210938 76.3125 168.144531 75.882812 167.703125 76.109375 C 167.277344 76.328125 167.503906 76.671875 167.640625 76.945312 C 168.25 78.15625 168.804688 79.398438 169.132812 80.710938 C 169.933594 83.902344 170.191406 87.152344 170.132812 90.4375 C 170.09375 92.675781 170.199219 94.917969 169.71875 97.125 C 169.546875 97.910156 169.328125 98.6875 169.125 99.464844 C 169.0625 99.710938 168.894531 100.011719 169.210938 100.152344 C 169.578125 100.320312 169.6875 99.953125 169.835938 99.71875 C 169.886719 99.640625 169.917969 99.542969 169.953125 99.453125 C 171.339844 96.117188 172.328125 92.691406 172.296875 89.039062 C 172.328125 87.246094 172.097656 85.484375 171.777344 83.726562 Z M 168.933594 209.292969 C 168.386719 208.835938 167.84375 208.375 167.273438 207.945312 C 164.519531 205.886719 162.652344 203.140625 161.21875 200.078125 C 160.566406 198.683594 160.039062 197.226562 159.125 195.964844 C 158.980469 195.761719 158.851562 195.4375 158.539062 195.585938 C 158.246094 195.726562 158.332031 196.058594 158.449219 196.269531 C 159.21875 197.652344 159.296875 199.230469 159.773438 200.695312 C 160.628906 203.324219 161.757812 205.789062 164.195312 207.351562 C 165.664062 208.289062 167.351562 208.863281 168.695312 210.015625 C 168.824219 210.121094 168.972656 210.207031 169.125 210.0625 C 169.210938 209.984375 169.269531 209.871094 169.347656 209.765625 C 169.1875 209.582031 169.078125 209.414062 168.933594 209.292969 Z M 192.96875 174.824219 C 192.976562 175.660156 192.90625 176.507812 193.167969 177.328125 C 193.28125 177.6875 193.507812 178.007812 193.878906 178.003906 C 194.226562 178 194.246094 177.585938 194.3125 177.324219 C 194.539062 176.414062 194.695312 175.488281 194.574219 174.542969 C 194.261719 172.101562 194.207031 169.652344 194.390625 167.195312 C 194.410156 166.910156 194.507812 166.546875 194.117188 166.484375 C 193.671875 166.414062 193.660156 166.839844 193.5625 167.132812 C 192.910156 169.066406 192.914062 171.066406 192.96875 173.074219 C 192.96875 173.65625 192.964844 174.238281 192.96875 174.824219 Z M 136.039062 196.011719 C 135.5625 195.941406 135.617188 196.539062 135.496094 196.882812 C 135.164062 197.820312 134.828125 198.761719 134.476562 199.695312 C 134.140625 200.597656 133.777344 201.492188 133.433594 202.394531 C 133.351562 202.613281 133.324219 202.855469 133.53125 203.019531 C 133.753906 203.195312 133.886719 202.992188 134 202.847656 C 135.308594 201.121094 136.234375 199.234375 136.320312 196.929688 C 136.203125 196.675781 136.546875 196.085938 136.039062 196.011719 Z M 136.039062 196.011719 " fill-opacity="1" fill-rule="nonzero"/></g><g clip-path="url(#417f0c3d01)"><path fill="#231f20" d="M 295.046875 152.886719 L 295.046875 157.734375 C 295.046875 157.949219 294.941406 158.160156 294.761719 158.265625 L 249.867188 184.609375 C 251.140625 186.769531 251.8125 189 251.8125 191.300781 C 251.8125 191.335938 251.8125 191.40625 251.8125 191.441406 C 251.8125 191.441406 251.8125 191.441406 251.8125 191.480469 L 251.8125 203.730469 C 251.8125 215.484375 245.972656 225.574219 234.890625 232.941406 C 223.0625 240.765625 205.785156 244.941406 184.964844 244.941406 C 184.964844 244.941406 184.929688 244.941406 184.929688 244.941406 C 184.929688 244.941406 184.894531 244.941406 184.894531 244.941406 C 164.039062 244.941406 146.796875 240.800781 134.96875 232.941406 C 123.886719 225.609375 118.046875 215.484375 118.046875 203.730469 L 118.046875 191.480469 C 118.046875 191.371094 118.082031 191.300781 118.117188 191.230469 C 118.152344 183.796875 125.199219 176.855469 137.910156 171.6875 C 150.480469 166.589844 167.226562 163.753906 185 163.753906 C 201.675781 163.753906 217.433594 166.234375 229.71875 170.765625 L 283.679688 147.75 C 283.820312 147.679688 284 147.679688 284.175781 147.75 L 294.761719 152.355469 C 294.867188 152.425781 295.046875 152.636719 295.046875 152.886719 Z M 295.046875 152.886719 " fill-opacity="1" fill-rule="nonzero"/></g><path fill="#afd85e" d="M 196.613281 185.8125 C 196.402344 185.742188 196.226562 185.566406 196.191406 185.316406 C 196.152344 185.105469 196.261719 184.859375 196.4375 184.714844 C 196.578125 184.609375 197.039062 183.796875 197.074219 182.699219 C 197.109375 182.0625 197.003906 181.175781 196.367188 180.539062 C 195.660156 179.867188 194.773438 179.511719 193.675781 179.511719 C 192.789062 179.511719 192.082031 179.757812 192.082031 179.757812 C 191.941406 179.828125 191.761719 179.792969 191.621094 179.722656 C 191.480469 179.652344 191.375 179.511719 191.304688 179.371094 C 191.269531 179.261719 190.453125 176.785156 188.082031 176.574219 C 187.902344 176.539062 187.761719 176.539062 187.621094 176.539062 C 185.636719 176.539062 184.894531 178.058594 184.894531 178.128906 C 184.824219 178.308594 184.648438 178.449219 184.433594 178.484375 C 184.222656 178.519531 184.007812 178.449219 183.867188 178.273438 C 183.867188 178.273438 182.558594 176.75 181.210938 176.75 C 181.070312 176.75 180.964844 176.75 180.824219 176.785156 C 178.203125 177.386719 178.558594 180.539062 178.558594 180.644531 C 178.59375 180.890625 178.484375 181.105469 178.273438 181.246094 C 178.0625 181.351562 177.8125 181.351562 177.601562 181.210938 C 177.601562 181.210938 176.929688 180.75 176.148438 180.75 C 175.371094 180.75 174.734375 181.246094 174.273438 182.238281 C 174.058594 182.699219 174.023438 183.160156 174.203125 183.617188 C 174.554688 184.503906 175.6875 185.390625 177.316406 186.027344 C 177.707031 186.167969 178.132812 186.34375 178.628906 186.488281 C 180.113281 185.957031 181.390625 185.566406 182.203125 185.53125 L 182.308594 185.53125 C 184.613281 185.53125 187.832031 188.113281 188.292969 188.503906 C 189.496094 188.644531 190.703125 188.71875 191.835938 188.71875 C 192.117188 188.71875 192.4375 188.71875 192.71875 188.71875 C 194.347656 188.042969 195.941406 187.230469 197.429688 186.34375 C 197.25 186.132812 196.96875 185.921875 196.613281 185.8125 Z M 189.710938 183.40625 C 188.859375 182.910156 187.832031 183.230469 187.335938 184.078125 C 187.019531 184.609375 186.167969 184.398438 186.167969 183.761719 C 186.167969 183.230469 185.921875 182.804688 185.425781 182.589844 C 184.894531 182.414062 184.328125 182.589844 183.867188 182.910156 C 183.265625 183.335938 182.664062 182.238281 183.335938 181.882812 C 184.1875 181.351562 185.214844 181.140625 186.132812 181.566406 C 186.59375 181.777344 186.914062 182.132812 187.160156 182.519531 C 188.082031 181.882812 189.320312 181.777344 190.3125 182.34375 C 190.984375 182.734375 190.382812 183.761719 189.710938 183.40625 Z M 161.84375 181.386719 C 163.121094 181.386719 165.066406 182.554688 166.304688 183.40625 C 162.976562 185.035156 156.710938 187.972656 153.808594 189.105469 C 153.417969 188.929688 152.992188 188.824219 152.496094 188.824219 C 152.355469 188.824219 152.214844 188.824219 152.109375 188.859375 C 152.035156 187.867188 151.683594 186.628906 150.691406 185.882812 C 154.691406 183.867188 159.863281 181.492188 161.738281 181.421875 Z M 148.425781 204.613281 C 147.503906 204.613281 146.019531 204.648438 144.355469 204.648438 C 136.105469 204.648438 133.910156 204.402344 133.378906 204.296875 C 132.632812 204.082031 131.003906 202.03125 129.800781 200.222656 C 131.183594 200.152344 133.765625 200.082031 136.421875 200.082031 C 138.121094 200.082031 139.503906 200.117188 140.636719 200.1875 C 140.8125 200.367188 140.988281 200.542969 141.167969 200.71875 C 141.484375 201.109375 142.050781 201.109375 142.230469 201.109375 C 142.761719 201.109375 143.609375 200.933594 144.636719 200.648438 C 144.882812 200.71875 145.0625 200.789062 145.203125 200.824219 C 146.371094 201.285156 147.683594 203.269531 148.425781 204.613281 Z M 159.792969 201.996094 C 161.066406 201.996094 163.046875 203.234375 164.253906 204.117188 C 160.25 205.996094 152 209.785156 150.40625 210.066406 C 150.371094 210.066406 150.335938 210.066406 150.300781 210.066406 C 149.382812 210.066406 147.152344 208.863281 145.488281 207.871094 C 149.382812 205.890625 157.347656 202.101562 159.792969 201.996094 Z M 186.808594 188.964844 C 182.804688 190.839844 174.554688 194.628906 172.996094 194.914062 C 172.183594 194.984375 169.8125 193.746094 168.078125 192.71875 C 171.972656 190.734375 179.902344 186.945312 182.34375 186.839844 C 183.585938 186.839844 185.566406 188.078125 186.808594 188.964844 Z M 195.339844 204.117188 C 194.136719 203.800781 192.613281 203.375 190.949219 202.914062 C 190.773438 202.808594 190.59375 202.738281 190.417969 202.667969 C 190.136719 202.5625 189.851562 202.488281 189.570312 202.488281 C 189.53125 202.488281 189.53125 202.488281 189.496094 202.488281 C 185.710938 201.394531 181.8125 200.1875 180.929688 199.65625 C 180.257812 199.269531 179.265625 196.859375 178.59375 194.84375 C 182.804688 195.832031 191.375 198.101562 193.25 199.585938 C 194.242188 200.332031 194.984375 202.632812 195.339844 204.117188 Z M 222.886719 199.199219 C 219.558594 197.816406 213.433594 195.230469 210.566406 193.746094 C 210.246094 193.460938 209.855469 193.25 209.433594 193.109375 C 209.324219 193.035156 209.21875 192.964844 209.148438 192.929688 C 208.546875 192.433594 207.839844 189.957031 207.449219 187.867188 C 210.351562 188.964844 215.414062 190.949219 218.636719 192.648438 C 219.203125 193.710938 220.335938 194.59375 221.859375 195.125 C 222.425781 196.257812 222.746094 197.957031 222.886719 199.199219 Z M 138.050781 197.886719 C 139.644531 197.957031 140.953125 198.59375 142.015625 199.871094 C 142.050781 199.871094 142.121094 199.871094 142.195312 199.871094 C 144.210938 199.871094 150.445312 197.285156 151.257812 196.71875 C 151.292969 196.542969 151.292969 196.152344 151.257812 195.941406 C 151.1875 195.230469 151.117188 194.382812 151.824219 193.921875 C 152 193.816406 152.179688 193.746094 152.425781 193.675781 C 153.558594 193.25 154.410156 192.789062 154.160156 191.585938 C 153.949219 190.558594 153.417969 190.027344 152.496094 190.027344 C 152.035156 190.027344 151.683594 190.132812 151.683594 190.167969 C 151.46875 190.238281 151.257812 190.203125 151.117188 190.0625 C 150.9375 189.921875 150.867188 189.742188 150.902344 189.53125 C 150.902344 189.425781 151.152344 186.910156 149.132812 186.449219 C 149.027344 186.414062 148.921875 186.414062 148.816406 186.414062 C 147.894531 186.414062 146.972656 187.300781 146.691406 187.65625 C 146.546875 187.832031 146.335938 187.902344 146.125 187.867188 C 145.910156 187.832031 145.734375 187.691406 145.664062 187.511719 C 145.628906 187.476562 144.992188 186.0625 143.148438 186.238281 C 141.238281 186.449219 140.601562 188.398438 140.566406 188.46875 C 140.53125 188.644531 140.386719 188.753906 140.246094 188.824219 C 140.105469 188.894531 139.925781 188.894531 139.75 188.859375 C 139.75 188.859375 139.148438 188.644531 138.40625 188.644531 C 137.554688 188.644531 136.847656 188.929688 136.316406 189.460938 C 135.75 190.027344 135.464844 190.734375 135.539062 191.480469 C 135.574219 192.046875 135.855469 192.503906 136.246094 192.753906 C 136.457031 192.894531 136.5625 193.144531 136.492188 193.355469 C 136.457031 193.601562 136.246094 193.78125 136.03125 193.851562 C 135.324219 193.992188 134.828125 194.773438 134.933594 195.65625 C 135.007812 196.648438 135.890625 197.78125 138.050781 197.886719 Z M 141.628906 197.320312 C 142.160156 197.320312 142.40625 196.789062 142.582031 196.292969 C 142.652344 196.046875 142.6875 195.761719 142.761719 195.515625 C 142.761719 195.480469 142.761719 195.445312 142.761719 195.410156 C 142.761719 195.375 142.761719 195.375 142.761719 195.339844 C 142.761719 195.339844 142.761719 195.300781 142.761719 195.265625 C 142.761719 194.949219 143.007812 194.59375 143.363281 194.664062 C 143.964844 194.734375 144.566406 194.558594 145.132812 194.347656 C 145.558594 194.167969 146.300781 193.851562 146.476562 193.496094 C 146.65625 193.070312 147.257812 192.894531 147.574219 193.390625 C 148 194.132812 149.027344 193.992188 149.628906 193.636719 C 150.371094 193.285156 150.976562 194.3125 150.300781 194.664062 C 149.3125 195.265625 148.035156 195.339844 147.152344 194.628906 C 146.761719 194.984375 146.300781 195.265625 145.804688 195.445312 C 145.238281 195.621094 144.601562 195.832031 143.964844 195.871094 C 143.714844 197.144531 143.042969 198.488281 141.628906 198.523438 C 140.8125 198.558594 140.8125 197.320312 141.628906 197.320312 Z M 193.320312 208.15625 C 192.789062 208.15625 192.292969 208.472656 192.292969 208.472656 C 192.082031 208.617188 191.835938 208.617188 191.621094 208.472656 C 191.410156 208.332031 191.304688 208.085938 191.375 207.835938 C 191.375 207.800781 192.082031 204.507812 189.992188 203.765625 C 189.851562 203.695312 189.710938 203.695312 189.570312 203.695312 C 188.71875 203.695312 187.726562 204.578125 187.445312 204.933594 C 187.300781 205.109375 187.054688 205.179688 186.84375 205.109375 C 186.628906 205.039062 186.453125 204.898438 186.382812 204.648438 C 186.347656 204.578125 185.886719 202.808594 184.007812 202.808594 C 182.027344 202.808594 181.070312 205.25 181.070312 205.25 C 181 205.429688 180.859375 205.535156 180.714844 205.605469 C 180.539062 205.675781 180.363281 205.640625 180.222656 205.570312 C 180.222656 205.570312 179.511719 205.179688 178.628906 205.179688 C 177.917969 205.179688 177.316406 205.429688 176.785156 205.925781 C 175.476562 207.128906 176.007812 209.820312 176.289062 210.171875 C 176.433594 210.351562 176.46875 210.5625 176.398438 210.738281 C 176.324219 210.917969 176.183594 211.09375 175.972656 211.128906 C 175.476562 211.269531 175.015625 211.730469 175.015625 212.296875 C 175.015625 213.148438 176.148438 213.890625 178.027344 214.316406 C 179.195312 214.5625 180.574219 214.707031 182.097656 214.707031 C 186.097656 214.707031 190.207031 213.820312 191.871094 213.253906 C 194.101562 212.4375 195.199219 211.128906 194.808594 209.75 C 194.453125 208.722656 193.996094 208.15625 193.320312 208.15625 Z M 187.867188 209.074219 C 187.796875 209.394531 187.445312 209.605469 187.125 209.5 C 187.054688 209.5 187.019531 209.429688 186.949219 209.429688 C 186.949219 209.429688 186.914062 209.429688 186.878906 209.429688 C 186.84375 209.429688 186.84375 209.429688 186.808594 209.429688 C 186.699219 209.429688 186.59375 209.429688 186.523438 209.429688 C 186.167969 209.429688 186.097656 209.429688 185.746094 209.535156 C 185.636719 209.535156 185.566406 209.605469 185.496094 209.605469 C 185.460938 209.605469 185.460938 209.605469 185.460938 209.605469 C 185.390625 209.675781 185.355469 209.675781 185.285156 209.714844 C 185.214844 209.714844 185.035156 209.820312 185.179688 209.785156 C 185.105469 209.855469 185.105469 209.855469 185.070312 209.890625 C 185.035156 209.925781 185.035156 209.925781 185.035156 209.925781 C 185 209.925781 184.964844 209.996094 184.964844 209.996094 C 184.964844 209.996094 184.964844 209.996094 185 209.960938 C 184.964844 209.996094 184.964844 209.996094 184.964844 209.996094 C 184.929688 210.03125 184.929688 210.101562 184.929688 210.136719 C 184.929688 210.386719 184.683594 210.492188 184.433594 210.5625 C 184.1875 210.5625 183.9375 210.457031 183.832031 210.246094 C 183.40625 209.714844 182.875 209.714844 182.273438 209.925781 C 181.957031 210.03125 181.601562 209.75 181.53125 209.5 C 181.425781 209.183594 181.636719 208.898438 181.957031 208.757812 C 182.488281 208.582031 183.054688 208.507812 183.585938 208.652344 C 183.796875 208.722656 184.007812 208.828125 184.1875 208.96875 C 184.929688 208.121094 186.523438 207.90625 187.515625 208.226562 C 187.761719 208.402344 187.941406 208.792969 187.867188 209.074219 Z M 241.121094 193.851562 C 240.910156 193.78125 240.730469 193.601562 240.695312 193.355469 C 240.660156 193.144531 240.765625 192.894531 240.945312 192.753906 C 241.085938 192.648438 241.511719 191.867188 241.546875 190.839844 C 241.582031 190.238281 241.476562 189.355469 240.875 188.753906 C 240.199219 188.113281 239.351562 187.796875 238.324219 187.796875 C 237.4375 187.796875 236.765625 188.042969 236.765625 188.042969 C 236.625 188.113281 236.449219 188.078125 236.269531 188.007812 C 236.128906 187.9375 236.023438 187.796875 235.953125 187.65625 C 235.917969 187.546875 235.171875 185.210938 232.835938 185 C 232.660156 184.964844 232.515625 184.964844 232.375 184.964844 C 230.464844 184.964844 229.753906 186.488281 229.753906 186.523438 C 229.683594 186.699219 229.507812 186.839844 229.296875 186.875 C 229.082031 186.910156 228.871094 186.839844 228.765625 186.664062 C 228.765625 186.664062 227.488281 185.210938 226.179688 185.210938 C 226.074219 185.210938 225.96875 185.210938 225.859375 185.246094 C 223.417969 185.777344 223.734375 188.824219 223.734375 188.929688 C 223.773438 189.175781 223.628906 189.390625 223.453125 189.53125 C 223.242188 189.636719 222.992188 189.636719 222.78125 189.496094 C 222.78125 189.496094 222.109375 189.035156 221.363281 189.035156 C 220.621094 189.035156 220.054688 189.496094 219.628906 190.453125 C 219.417969 190.914062 219.417969 191.40625 219.628906 191.902344 C 220.019531 192.789062 221.117188 193.601562 222.53125 194.0625 C 222.636719 194.097656 222.746094 194.167969 222.816406 194.242188 C 223.59375 195.160156 224.230469 196.472656 224.796875 198.136719 C 224.871094 198.242188 224.941406 198.382812 225.046875 198.59375 C 225.257812 198.949219 226.285156 199.445312 227.632812 199.90625 C 228.234375 199.726562 228.800781 199.585938 229.1875 199.550781 C 229.257812 199.550781 229.332031 199.550781 229.367188 199.550781 C 230.675781 199.550781 232.304688 200.367188 233.542969 201.109375 C 234.074219 201.109375 234.214844 201.003906 234.214844 201.003906 C 235.277344 199.726562 236.976562 199.054688 237.722656 198.878906 C 237.757812 198.878906 237.828125 198.878906 237.863281 198.878906 C 240.308594 198.878906 241.792969 197.992188 242.007812 196.363281 C 242.253906 195.160156 241.617188 194.027344 241.121094 193.851562 Z M 234.746094 199.269531 C 233.402344 199.199219 232.269531 198.667969 231.773438 197.390625 C 231.632812 197.039062 231.5625 196.648438 231.527344 196.257812 C 230.851562 196.222656 230.214844 195.976562 229.648438 195.691406 C 229.117188 195.480469 228.65625 195.160156 228.304688 194.734375 C 227.3125 195.550781 225.824219 195.480469 224.691406 194.84375 C 224.019531 194.417969 224.621094 193.390625 225.363281 193.746094 C 226.144531 194.167969 227.3125 194.277344 227.84375 193.390625 C 228.089844 192.894531 228.765625 193.035156 228.941406 193.496094 C 229.1875 194.027344 229.863281 194.417969 230.320312 194.59375 C 230.851562 194.84375 231.527344 195.019531 232.128906 194.949219 C 232.625 194.949219 232.800781 195.375 232.730469 195.726562 C 232.800781 195.410156 232.730469 195.90625 232.730469 196.046875 C 232.730469 196.398438 232.730469 196.542969 232.835938 196.824219 C 233.15625 197.605469 233.863281 197.992188 234.710938 198.027344 C 235.5625 198.136719 235.5625 199.339844 234.746094 199.269531 Z M 229.402344 200.789062 C 230.675781 200.789062 232.660156 201.921875 233.863281 202.773438 C 229.898438 204.792969 221.789062 208.792969 220.195312 209.109375 C 220.160156 209.109375 220.125 209.109375 220.054688 209.109375 C 219.097656 209.109375 216.902344 208.050781 215.273438 207.09375 C 219.0625 205.003906 226.886719 200.96875 229.296875 200.789062 Z M 229.402344 200.789062 " fill-opacity="1" fill-rule="nonzero"/><path fill="#ebc692" d="M 172.855469 183.902344 C 172.785156 183.832031 172.714844 183.726562 172.679688 183.652344 C 172.75 183.652344 172.855469 183.652344 172.925781 183.652344 C 172.960938 183.832031 172.996094 184.007812 173.070312 184.183594 C 172.996094 184.078125 172.925781 183.972656 172.855469 183.902344 Z M 176.894531 187.230469 C 175.867188 186.839844 174.980469 186.34375 174.34375 185.777344 C 174.34375 185.921875 174.308594 186.097656 174.203125 186.203125 C 172.960938 187.691406 171.617188 189.070312 170.164062 190.308594 C 172.148438 189.355469 174.660156 188.1875 176.964844 187.230469 C 176.894531 187.265625 176.894531 187.230469 176.894531 187.230469 Z M 159.683594 200.789062 C 157.808594 200.863281 153.382812 202.738281 149.699219 204.472656 C 149.167969 203.445312 147.824219 201.179688 146.335938 200.082031 C 149.0625 199.160156 152 197.921875 152.285156 197.355469 C 152.53125 196.929688 152.496094 196.363281 152.460938 195.832031 C 152.425781 195.585938 152.390625 195.089844 152.460938 194.949219 C 152.566406 194.914062 152.675781 194.84375 152.816406 194.808594 C 153.773438 194.417969 155.753906 193.675781 155.328125 191.371094 C 155.222656 190.839844 155.046875 190.417969 154.796875 190.027344 C 159.011719 188.328125 167.296875 184.292969 167.722656 184.078125 C 167.898438 183.972656 168.039062 183.796875 168.078125 183.582031 C 168.5 183.582031 168.960938 183.617188 169.386719 183.617188 C 165.84375 187.441406 161.277344 190.558594 156.710938 192.292969 C 156.460938 192.398438 156.320312 192.613281 156.320312 192.859375 C 156.320312 194.203125 156.921875 195.480469 157.277344 196.257812 C 157.382812 196.4375 157.488281 196.683594 157.488281 196.753906 C 157.523438 196.929688 157.632812 197.074219 157.773438 197.144531 C 157.878906 197.179688 157.949219 197.214844 158.054688 197.214844 C 158.125 197.214844 158.199219 197.214844 158.269531 197.179688 C 161.136719 196.1875 163.898438 194.84375 166.414062 193.144531 C 166.414062 193.144531 166.449219 193.179688 166.449219 193.179688 C 166.730469 193.355469 168.324219 194.347656 169.917969 195.160156 C 167.828125 195.230469 165.632812 195.550781 163.898438 196.613281 C 162.269531 197.640625 161.101562 199.125 160.535156 200.898438 C 160.25 200.824219 160.003906 200.789062 159.71875 200.789062 Z M 153.984375 199.410156 C 152.78125 199.410156 152.78125 200.753906 153.984375 200.753906 C 155.1875 200.753906 155.1875 199.410156 153.984375 199.410156 Z M 246.007812 200.898438 C 236.375 210.632812 212.582031 217.574219 184.894531 217.574219 C 178.664062 217.574219 172.644531 217.21875 166.871094 216.582031 C 166.90625 216.40625 166.980469 216.191406 167.015625 215.980469 C 167.226562 215.164062 167.402344 214.351562 167.402344 213.820312 C 167.402344 213.5 167.121094 213.21875 166.800781 213.21875 C 162.199219 213.183594 157.453125 212.121094 153.347656 210.351562 C 156.109375 209.253906 160.109375 207.410156 162.800781 206.171875 C 163.226562 206.207031 163.652344 206.207031 164.074219 206.136719 C 164.925781 206.03125 165.773438 205.820312 166.625 205.710938 C 166.800781 205.710938 167.296875 205.605469 167.402344 205.710938 C 167.472656 205.78125 167.332031 205.640625 167.332031 205.710938 C 167.402344 205.890625 167.226562 206.136719 167.15625 206.242188 C 166.800781 207.164062 166.234375 207.941406 166.304688 208.96875 C 166.375 209.996094 167.226562 210.738281 168.183594 211.023438 C 170.058594 211.695312 172.960938 211.09375 174.308594 209.570312 C 174.484375 209.394531 174.589844 209.183594 174.660156 208.96875 C 174.699219 209.464844 174.804688 209.925781 174.910156 210.316406 C 174.203125 210.773438 173.707031 211.554688 173.707031 212.402344 C 173.707031 213.253906 174.238281 214.8125 177.636719 215.589844 C 178.875 215.875 180.363281 216.015625 181.992188 216.015625 C 186.167969 216.015625 190.347656 215.09375 192.152344 214.492188 C 194.984375 213.464844 196.402344 211.554688 195.871094 209.535156 C 195.269531 207.339844 193.996094 207.023438 193.285156 207.023438 C 193.074219 207.023438 192.824219 207.058594 192.648438 207.09375 C 192.683594 206.386719 192.648438 205.464844 192.292969 204.613281 C 194.277344 205.179688 195.765625 205.570312 195.941406 205.605469 C 195.976562 205.605469 196.046875 205.640625 196.082031 205.640625 C 196.402344 205.640625 196.683594 205.359375 196.683594 205.039062 C 196.683594 204.96875 196.683594 204.898438 196.648438 204.828125 C 196.507812 203.976562 195.695312 200.046875 193.957031 198.703125 C 192.898438 197.851562 190.171875 196.859375 187.300781 196.011719 C 192.613281 195.125 197.675781 193.035156 202.136719 189.816406 C 202.386719 189.636719 202.457031 189.285156 202.28125 189 C 202.03125 188.644531 201.75 187.9375 201.464844 187.265625 C 201.109375 186.449219 200.792969 185.671875 200.472656 185.246094 C 200.367188 185.105469 200.226562 185.035156 200.085938 185 C 199.90625 184.964844 199.765625 185 199.625 185.105469 C 199.234375 185.390625 198.84375 185.636719 198.457031 185.921875 C 198.277344 185.636719 197.996094 185.351562 197.710938 185.140625 C 197.996094 184.574219 198.242188 183.796875 198.277344 183.015625 C 198.347656 182.023438 198.136719 181.140625 197.675781 180.433594 C 198.136719 180.503906 198.597656 180.574219 199.023438 180.644531 C 198.953125 180.785156 198.878906 180.890625 198.84375 181.035156 C 198.738281 181.246094 198.632812 181.457031 198.597656 181.53125 C 198.492188 181.671875 198.457031 181.847656 198.492188 181.988281 C 198.527344 182.167969 198.632812 182.308594 198.773438 182.378906 C 204.296875 185.8125 210.707031 187.691406 217.328125 187.726562 C 217.503906 187.726562 217.644531 187.65625 217.753906 187.546875 C 217.859375 187.441406 217.929688 187.265625 217.929688 187.125 C 217.929688 186.910156 217.964844 186.628906 218.035156 186.273438 C 218.777344 186.273438 219.523438 186.238281 220.265625 186.203125 C 221.152344 186.167969 222.109375 186.132812 222.992188 186.132812 C 223.027344 186.132812 223.0625 186.132812 223.097656 186.132812 C 222.746094 186.804688 222.566406 187.546875 222.53125 188.222656 C 222.214844 188.113281 221.824219 188.007812 221.398438 188.007812 C 220.550781 188.007812 219.347656 188.363281 218.53125 190.132812 C 218.355469 190.488281 218.285156 190.875 218.25 191.230469 C 213.714844 188.964844 207.238281 186.628906 206.847656 186.488281 C 206.632812 186.414062 206.421875 186.449219 206.246094 186.59375 C 206.066406 186.734375 205.996094 186.945312 206.03125 187.160156 C 206.175781 187.9375 206.777344 191.40625 207.730469 193.179688 C 207.09375 193.285156 206.457031 193.496094 205.890625 193.746094 C 205.5 193.921875 205.113281 194.167969 204.722656 194.382812 C 204.617188 193.851562 204.511719 193.355469 204.332031 192.824219 C 204.15625 192.152344 203.835938 191.65625 203.128906 191.480469 C 202.351562 191.230469 201.429688 191.480469 200.652344 191.726562 C 199.269531 192.222656 197.925781 192.929688 197.003906 194.097656 C 196.082031 195.265625 195.199219 197.25 196.578125 198.382812 C 197.109375 198.878906 197.746094 198.984375 198.382812 199.125 C 198.632812 199.160156 198.878906 199.234375 199.164062 199.269531 C 198.914062 199.550781 198.703125 199.800781 198.457031 200.082031 C 197.710938 200.898438 196.828125 201.996094 196.757812 203.09375 C 196.757812 203.128906 196.757812 203.199219 196.757812 203.234375 C 196.757812 203.269531 196.757812 203.339844 196.757812 203.375 C 196.898438 204.507812 197.890625 205.25 198.84375 205.710938 C 200.367188 206.457031 202.066406 206.667969 203.695312 206.632812 C 207.449219 206.527344 211.554688 204.261719 212.476562 200.332031 C 212.832031 198.878906 212.617188 197.320312 212.015625 195.976562 C 216.371094 198.027344 222.886719 200.683594 223.277344 200.863281 C 223.347656 200.898438 223.417969 200.898438 223.488281 200.898438 C 223.84375 200.898438 224.089844 200.613281 224.089844 200.296875 C 224.089844 200.222656 224.089844 200.1875 224.054688 200.152344 C 224.054688 200.046875 224.019531 199.835938 224.019531 199.621094 C 224.054688 199.65625 224.089844 199.65625 224.125 199.65625 C 224.480469 200.011719 225.082031 200.367188 225.824219 200.683594 C 223.3125 201.675781 220.125 203.269531 217.644531 204.542969 C 217.433594 204.226562 217.222656 203.835938 217.042969 203.480469 C 216.65625 202.808594 216.300781 202.136719 215.980469 201.78125 C 215.875 201.640625 215.734375 201.570312 215.558594 201.570312 C 215.378906 201.570312 215.238281 201.605469 215.097656 201.710938 C 210.742188 205.570312 205.21875 208.402344 199.941406 209.5 C 199.695312 209.570312 199.480469 209.785156 199.445312 210.03125 C 199.304688 211.269531 199.625 212.511719 199.835938 213.324219 C 199.90625 213.574219 199.976562 213.855469 199.976562 213.960938 C 199.976562 214.140625 200.050781 214.316406 200.191406 214.421875 C 200.296875 214.527344 200.4375 214.5625 200.578125 214.5625 C 200.617188 214.5625 200.652344 214.5625 200.6875 214.5625 C 205.714844 213.679688 210.671875 211.589844 214.992188 208.582031 C 216.441406 209.394531 218.671875 210.492188 219.914062 210.492188 C 220.054688 210.492188 220.160156 210.492188 220.265625 210.457031 C 222.496094 210.03125 234.640625 203.835938 235.136719 203.550781 C 235.3125 203.445312 235.457031 203.269531 235.457031 203.058594 C 235.492188 202.84375 235.386719 202.632812 235.207031 202.527344 C 235.171875 202.488281 235.03125 202.382812 234.785156 202.207031 C 234.855469 202.136719 234.960938 202.066406 234.996094 201.996094 C 235.773438 201.074219 237.121094 200.4375 237.828125 200.257812 C 240.269531 200.257812 241.582031 199.445312 242.289062 198.558594 C 242.324219 198.59375 242.359375 198.59375 242.394531 198.632812 C 243.8125 199.269531 244.980469 200.011719 246.007812 200.898438 Z M 162.554688 209.039062 C 161.347656 209.039062 161.347656 210.386719 162.554688 210.386719 C 163.792969 210.421875 163.792969 209.039062 162.554688 209.039062 Z M 237.863281 203.199219 C 236.660156 203.199219 236.660156 204.542969 237.863281 204.542969 C 239.066406 204.542969 239.066406 203.199219 237.863281 203.199219 Z M 187.902344 189.777344 C 187.480469 189.992188 186.628906 190.382812 185.53125 190.914062 C 186.878906 190.664062 188.222656 190.347656 189.570312 189.957031 C 189 189.886719 188.472656 189.851562 187.902344 189.777344 Z M 172.996094 204.863281 C 172.925781 205.289062 173.492188 205.710938 173.742188 205.960938 C 174.058594 206.3125 174.34375 206.703125 174.589844 207.128906 C 174.660156 207.269531 174.734375 207.410156 174.769531 207.554688 C 174.910156 206.632812 175.265625 205.746094 175.9375 205.109375 C 176.21875 204.828125 176.539062 204.613281 176.855469 204.472656 C 176.363281 204.542969 175.832031 204.542969 175.371094 204.542969 C 174.910156 204.472656 173.105469 204.191406 172.996094 204.863281 Z M 177.953125 197.640625 C 178.628906 198.59375 178.980469 199.835938 179.125 201.039062 C 179.230469 201.996094 179.195312 203.269531 178.34375 203.871094 C 178.273438 203.941406 178.167969 203.976562 178.097656 204.011719 C 178.273438 203.976562 178.449219 203.976562 178.628906 203.976562 C 179.265625 203.976562 179.832031 204.117188 180.257812 204.261719 C 180.679688 203.480469 181.566406 202.171875 183.089844 201.746094 C 181.8125 201.320312 180.824219 200.933594 180.363281 200.683594 C 179.050781 199.90625 177.777344 196.082031 177.316406 194.59375 C 176.433594 194.949219 175.652344 195.300781 174.980469 195.550781 C 176.113281 195.90625 177.246094 196.542969 177.953125 197.640625 Z M 186.84375 202.984375 C 186.984375 203.164062 187.089844 203.339844 187.195312 203.515625 C 187.300781 203.410156 187.445312 203.304688 187.585938 203.234375 C 187.335938 203.128906 187.089844 203.058594 186.84375 202.984375 Z M 143.964844 208.332031 C 144.28125 208.542969 146.335938 209.890625 148.214844 210.667969 C 147.964844 211.058594 147.789062 211.449219 147.644531 211.765625 C 147.539062 211.980469 147.433594 212.191406 147.398438 212.261719 C 147.292969 212.402344 147.257812 212.582031 147.292969 212.722656 C 147.292969 212.757812 147.292969 212.757812 147.292969 212.757812 C 143.503906 211.660156 139.964844 210.386719 136.742188 208.96875 C 130.863281 206.347656 126.261719 203.199219 123.25 199.90625 C 124.738281 195.375 128.066406 192.753906 133.234375 192.082031 C 133.625 192.046875 134.050781 191.972656 134.441406 191.902344 C 134.511719 192.328125 134.6875 192.71875 134.898438 193.070312 C 134.121094 193.636719 133.660156 194.664062 133.730469 195.761719 C 133.835938 196.929688 134.617188 198.3125 136.457031 198.878906 C 136.457031 198.878906 136.457031 198.878906 136.421875 198.878906 C 132.457031 198.878906 128.738281 199.089844 128.703125 199.089844 C 128.492188 199.089844 128.3125 199.234375 128.207031 199.410156 C 128.101562 199.585938 128.101562 199.835938 128.242188 200.011719 C 128.773438 200.863281 131.429688 205.003906 133.09375 205.5 C 134.191406 205.78125 137.980469 205.925781 144.390625 205.925781 C 145.308594 205.925781 146.160156 205.925781 146.902344 205.925781 C 145.308594 206.703125 144.175781 207.304688 144.035156 207.375 C 143.859375 207.484375 143.714844 207.660156 143.714844 207.871094 C 143.644531 208.011719 143.75 208.191406 143.964844 208.332031 Z M 130.472656 196.117188 C 131.679688 196.1875 131.679688 194.773438 130.472656 194.773438 C 129.269531 194.773438 129.269531 196.117188 130.472656 196.117188 Z M 140.601562 208.121094 C 139.398438 208.121094 139.398438 209.464844 140.601562 209.464844 C 141.804688 209.464844 141.804688 208.121094 140.601562 208.121094 Z M 183.089844 192.011719 C 181.851562 192.578125 180.539062 193.179688 179.265625 193.746094 C 180.257812 193.992188 181.636719 194.3125 183.195312 194.734375 C 183.089844 193.992188 182.949219 193 183.089844 192.011719 Z M 177.953125 200.613281 C 177.777344 199.65625 177.421875 198.558594 176.679688 197.816406 C 175.15625 196.257812 172.429688 196.292969 170.449219 196.363281 C 168.324219 196.4375 166.164062 196.613281 164.324219 197.816406 C 163.046875 198.703125 162.164062 199.871094 161.773438 201.25 C 162.695312 201.640625 163.613281 202.171875 164.324219 202.667969 C 164.996094 201.710938 166.199219 201.179688 167.402344 201.074219 C 167.757812 201.074219 168.003906 201.394531 168.003906 201.675781 C 168.003906 202.03125 167.6875 202.277344 167.402344 202.277344 C 167.402344 202.277344 167.367188 202.277344 167.367188 202.277344 C 167.367188 202.277344 167.367188 202.277344 167.332031 202.277344 L 167.261719 202.277344 C 167.191406 202.347656 167.15625 202.347656 167.085938 202.347656 C 166.765625 202.417969 166.554688 202.453125 166.234375 202.597656 L 166.269531 202.597656 C 166.304688 202.597656 166.339844 202.5625 166.269531 202.597656 C 166.234375 202.597656 166.199219 202.632812 166.234375 202.597656 C 166.164062 202.597656 166.164062 202.667969 166.128906 202.667969 C 166.023438 202.738281 165.953125 202.738281 165.882812 202.773438 C 165.808594 202.84375 165.703125 202.878906 165.632812 202.949219 C 165.5625 202.949219 165.5625 203.019531 165.527344 203.019531 C 165.457031 203.09375 165.421875 203.128906 165.351562 203.199219 C 165.316406 203.234375 165.316406 203.234375 165.277344 203.269531 C 165.351562 203.199219 165.351562 203.269531 165.207031 203.339844 C 165.492188 203.550781 165.703125 203.730469 165.773438 203.800781 C 165.953125 203.941406 166.023438 204.117188 165.988281 204.332031 C 165.988281 204.402344 165.953125 204.507812 165.917969 204.578125 C 166.519531 204.472656 167.191406 204.367188 167.757812 204.507812 C 168.535156 204.757812 168.714844 205.535156 168.535156 206.207031 C 168.289062 206.953125 167.757812 207.660156 167.617188 208.4375 C 167.4375 209.464844 168.464844 209.890625 169.316406 209.996094 C 170.34375 210.101562 171.441406 209.925781 172.359375 209.5 C 172.960938 209.253906 173.882812 208.757812 173.707031 207.976562 C 173.386719 206.632812 170.730469 205.359375 172.324219 203.800781 C 172.855469 203.269531 173.847656 203.269531 174.519531 203.269531 C 175.121094 203.269531 175.796875 203.304688 176.46875 203.269531 C 176.433594 203.09375 176.363281 202.878906 176.289062 202.738281 C 176.363281 202.914062 176.21875 202.667969 176.21875 202.667969 C 176.148438 202.597656 176.148438 202.5625 176.113281 202.488281 C 176.113281 202.417969 176.042969 202.417969 176.042969 202.382812 C 176.007812 202.347656 176.007812 202.347656 176.007812 202.347656 L 175.972656 202.3125 C 175.902344 202.242188 175.867188 202.207031 175.796875 202.136719 C 175.796875 202.136719 175.796875 202.136719 175.757812 202.101562 C 175.6875 202.03125 175.6875 201.996094 175.652344 201.996094 C 175.582031 201.921875 175.476562 201.921875 175.40625 201.886719 C 175.40625 201.816406 175.335938 201.816406 175.335938 201.816406 C 175.371094 201.816406 175.371094 201.816406 175.40625 201.816406 C 175.335938 201.816406 175.335938 201.746094 175.300781 201.746094 C 175.050781 201.675781 174.875 201.675781 174.699219 201.640625 C 174.660156 201.640625 174.660156 201.640625 174.625 201.640625 C 174.589844 201.640625 174.554688 201.640625 174.519531 201.640625 C 174.414062 201.640625 174.34375 201.640625 174.203125 201.640625 C 173.777344 201.640625 173.421875 201.640625 172.996094 201.640625 C 172.679688 201.640625 172.394531 201.394531 172.324219 201.109375 C 172.324219 200.789062 172.644531 200.507812 172.925781 200.507812 C 173.28125 200.507812 173.707031 200.507812 174.09375 200.507812 C 174.875 200.507812 175.652344 200.613281 176.324219 201.039062 C 177.035156 201.535156 177.460938 202.242188 177.671875 203.019531 C 178.203125 202.453125 178.0625 201.320312 177.953125 200.613281 Z M 165.242188 203.339844 C 165.242188 203.339844 165.277344 203.304688 165.316406 203.269531 C 165.242188 203.269531 165.242188 203.304688 165.242188 203.339844 Z M 197.746094 197.640625 Z M 197.890625 197.710938 C 198.421875 197.957031 199.09375 197.957031 199.660156 198.0625 C 199.800781 198.101562 199.941406 198.136719 200.085938 198.171875 C 200.722656 197.496094 201.429688 196.824219 202.136719 196.1875 C 202.632812 195.726562 203.199219 195.300781 203.730469 194.914062 C 203.589844 194.347656 203.484375 193.78125 203.339844 193.25 C 203.269531 193 203.234375 192.824219 203.09375 192.648438 C 203.09375 192.613281 203.09375 192.613281 203.09375 192.578125 C 203.023438 192.503906 202.917969 192.46875 202.8125 192.46875 C 202.207031 192.398438 201.464844 192.648438 200.863281 192.894531 C 199.660156 193.390625 198.667969 193.921875 197.960938 194.949219 C 197.605469 195.445312 197.214844 196.117188 197.214844 196.71875 C 197.214844 196.964844 197.289062 197.214844 197.464844 197.390625 C 197.535156 197.496094 197.640625 197.640625 197.78125 197.710938 C 197.78125 197.640625 197.855469 197.675781 197.890625 197.710938 Z M 198.242188 202.3125 C 198.136719 202.5625 197.996094 202.914062 197.996094 203.09375 C 197.996094 203.164062 197.996094 203.269531 197.960938 203.304688 C 198.136719 204.117188 199.519531 204.648438 200.226562 204.898438 C 201.855469 205.429688 203.625 205.5 205.253906 205.144531 C 208.476562 204.472656 211.554688 201.921875 211.378906 198.488281 C 211.273438 196.683594 210.105469 193.886719 207.910156 194.203125 C 206.8125 194.3125 205.714844 194.949219 204.828125 195.550781 C 203.660156 196.292969 202.597656 197.179688 201.605469 198.171875 C 200.652344 199.089844 199.800781 199.976562 198.988281 201.074219 C 198.738281 201.464844 198.492188 201.886719 198.242188 202.3125 Z M 198.242188 202.3125 " fill-opacity="1" fill-rule="nonzero"/><path fill="#ed544c" d="M 201.039062 189.035156 C 196.082031 192.46875 190.382812 194.558594 184.503906 195.054688 C 184.503906 195.019531 184.46875 194.949219 184.46875 194.878906 C 184.363281 194.203125 184.1875 193.214844 184.292969 192.292969 C 189.605469 191.65625 195.199219 189.496094 199.800781 186.308594 C 199.976562 186.664062 200.191406 187.160156 200.367188 187.621094 C 200.617188 188.152344 200.828125 188.644531 201.039062 189.035156 Z M 171.085938 183.582031 C 167.402344 187.832031 162.515625 191.300781 157.558594 193.25 C 157.667969 194.167969 158.089844 195.089844 158.375 195.726562 C 158.375 195.761719 158.410156 195.796875 158.410156 195.832031 C 163.933594 193.851562 168.925781 190.417969 172.855469 185.847656 C 172.539062 185.496094 172.21875 185.070312 171.863281 184.609375 C 171.617188 184.253906 171.332031 183.867188 171.085938 183.582031 Z M 150.621094 211.269531 C 150.515625 211.269531 150.445312 211.304688 150.335938 211.304688 C 150.054688 211.304688 149.699219 211.234375 149.347656 211.128906 C 149.097656 211.554688 148.886719 211.980469 148.707031 212.296875 C 148.707031 212.332031 148.671875 212.367188 148.671875 212.402344 C 149.59375 212.933594 150.515625 213.429688 151.433594 213.890625 C 155.894531 214.988281 160.675781 215.839844 165.703125 216.441406 C 165.738281 216.191406 165.808594 215.980469 165.882812 215.695312 C 165.988281 215.238281 166.09375 214.777344 166.164062 214.386719 C 161.207031 214.246094 156.109375 213.007812 151.789062 210.917969 C 151.257812 211.09375 150.867188 211.199219 150.621094 211.269531 Z M 201.359375 179.191406 C 200.6875 179.867188 200.261719 180.785156 199.941406 181.386719 C 199.941406 181.421875 199.90625 181.457031 199.90625 181.492188 C 204.96875 184.539062 210.8125 186.203125 216.796875 186.378906 C 216.867188 185.921875 216.972656 185.390625 217.113281 184.824219 C 217.222656 184.363281 217.328125 183.902344 217.398438 183.511719 C 211.769531 183.335938 205.996094 181.777344 201.359375 179.191406 Z M 213.75 206.5625 C 213.894531 206.492188 215.0625 205.820312 216.691406 204.96875 C 216.476562 204.648438 216.300781 204.261719 216.089844 203.90625 C 215.875 203.550781 215.699219 203.199219 215.523438 202.878906 C 211.203125 206.527344 205.890625 209.253906 200.757812 210.421875 C 200.757812 211.304688 200.96875 212.226562 201.148438 212.863281 C 201.183594 212.933594 201.183594 213.042969 201.21875 213.113281 C 205.679688 212.261719 210.105469 210.386719 213.964844 207.730469 C 213.859375 207.660156 213.785156 207.625 213.75 207.589844 C 213.574219 207.484375 213.46875 207.269531 213.46875 207.058594 C 213.433594 206.84375 213.574219 206.667969 213.75 206.5625 Z M 213.75 206.5625 " fill-opacity="1" fill-rule="nonzero"/><path fill="#ffffff" d="M 250.574219 191.265625 C 250.574219 191.441406 250.574219 191.585938 250.574219 191.761719 C 250.574219 191.832031 250.574219 191.902344 250.574219 192.011719 C 250.574219 192.152344 250.539062 192.292969 250.539062 192.398438 C 250.539062 192.503906 250.503906 192.578125 250.503906 192.683594 C 250.503906 192.789062 250.46875 192.894531 250.46875 193 C 250.433594 193.109375 250.433594 193.25 250.398438 193.355469 C 250.398438 193.425781 250.363281 193.496094 250.363281 193.566406 C 250.328125 193.746094 250.292969 193.886719 250.257812 194.0625 C 250.257812 194.097656 250.257812 194.132812 250.222656 194.132812 C 249.652344 196.152344 248.519531 198.101562 246.890625 199.941406 C 245.757812 198.984375 244.519531 198.207031 243.246094 197.425781 C 243.210938 197.390625 243.140625 197.355469 243.105469 197.320312 C 243.210938 197.003906 243.28125 196.753906 243.316406 196.507812 C 243.527344 195.160156 243.03125 193.746094 242.253906 193.035156 C 242.574219 192.46875 242.785156 191.726562 242.820312 190.949219 C 242.890625 189.671875 242.539062 188.574219 241.757812 187.867188 C 240.875 187.015625 239.703125 186.558594 238.394531 186.558594 C 237.828125 186.558594 237.332031 186.628906 236.976562 186.699219 C 236.554688 185.742188 235.421875 183.9375 233.046875 183.726562 C 230.960938 183.476562 229.753906 184.503906 229.1875 185.246094 C 228.445312 184.609375 227.101562 183.6875 225.648438 183.972656 C 225.011719 184.113281 224.515625 184.363281 224.125 184.679688 C 223.734375 184.679688 223.382812 184.644531 223.0625 184.644531 C 222.144531 184.644531 221.1875 184.679688 220.300781 184.714844 C 219.664062 184.75 219.027344 184.75 218.390625 184.785156 C 218.566406 184.007812 218.742188 183.300781 218.742188 182.804688 C 218.742188 182.484375 218.460938 182.203125 218.140625 182.203125 C 212.371094 182.132812 206.386719 180.539062 201.675781 177.8125 C 201.464844 177.671875 201.183594 177.707031 201.003906 177.847656 C 200.507812 178.238281 200.121094 178.769531 199.765625 179.261719 C 198.597656 179.050781 197.429688 178.875 196.226562 178.804688 C 195.515625 178.414062 194.667969 178.238281 193.78125 178.238281 C 193.214844 178.238281 192.71875 178.308594 192.367188 178.378906 C 191.941406 177.421875 190.738281 175.511719 188.292969 175.296875 C 186.132812 175.085938 184.894531 176.113281 184.328125 176.855469 C 183.691406 176.289062 182.558594 175.476562 181.320312 175.476562 C 181.105469 175.476562 180.894531 175.511719 180.679688 175.546875 C 178.308594 176.078125 177.566406 178.128906 177.460938 179.6875 C 177.105469 179.582031 176.714844 179.476562 176.289062 179.476562 C 175.40625 179.476562 174.167969 179.867188 173.316406 181.671875 C 173.210938 181.882812 173.140625 182.097656 173.105469 182.273438 C 172.679688 182.273438 172.289062 182.273438 171.828125 182.273438 C 171.757812 182.203125 171.652344 182.097656 171.582031 182.0625 C 171.332031 181.847656 170.945312 181.882812 170.730469 182.132812 C 170.695312 182.167969 170.660156 182.238281 170.625 182.273438 C 169.421875 182.273438 168.21875 182.238281 167.050781 182.203125 C 165.808594 181.351562 163.652344 180.042969 162.023438 180.042969 C 161.949219 180.042969 161.914062 180.042969 161.84375 180.042969 C 159.753906 180.113281 154.65625 182.449219 150.867188 184.328125 C 150.335938 184.539062 149.769531 184.785156 149.238281 185.035156 C 149.132812 185.035156 149.0625 185.035156 148.957031 185.035156 C 147.929688 185.035156 147.007812 185.636719 146.476562 186.132812 C 145.945312 185.496094 144.921875 184.679688 143.148438 184.859375 C 141.132812 185.070312 140.175781 186.558594 139.75 187.40625 C 139.433594 187.335938 139.042969 187.265625 138.546875 187.265625 C 137.378906 187.265625 136.351562 187.65625 135.609375 188.398438 C 135.007812 188.964844 134.617188 189.707031 134.476562 190.523438 C 134.050781 190.59375 133.589844 190.664062 133.128906 190.734375 C 129.023438 191.300781 124.527344 193.25 122.4375 198.738281 C 120.773438 196.683594 119.78125 194.558594 119.460938 192.503906 C 119.460938 192.503906 119.460938 192.503906 119.460938 192.46875 C 119.425781 192.328125 119.425781 192.222656 119.425781 192.082031 C 119.425781 191.972656 119.390625 191.902344 119.390625 191.796875 C 119.390625 191.726562 119.390625 191.65625 119.390625 191.585938 C 119.390625 191.441406 119.390625 191.300781 119.390625 191.125 C 119.390625 176.609375 148.851562 164.78125 185.035156 164.78125 C 221.117188 164.925781 250.574219 176.75 250.574219 191.265625 Z M 184.929688 225.007812 C 166.234375 225.007812 149.097656 221.964844 136.742188 216.40625 C 125.941406 211.554688 119.390625 205.003906 119.285156 198.878906 L 119.285156 203.660156 C 119.285156 203.695312 119.285156 203.695312 119.285156 203.730469 C 124.808594 215.273438 148.957031 226.210938 184.929688 226.210938 C 202.597656 226.210938 219.273438 223.414062 231.808594 218.351562 C 241.582031 214.421875 248.027344 209.429688 250.574219 203.976562 C 250.574219 203.871094 250.574219 203.800781 250.574219 203.695312 L 250.574219 198.914062 C 250.292969 213.289062 220.832031 225.007812 184.929688 225.007812 Z M 293.382812 153.664062 C 293.203125 153.382812 292.851562 153.273438 292.566406 153.453125 L 248.34375 179.441406 C 248.0625 179.617188 247.953125 179.972656 248.132812 180.253906 C 248.238281 180.433594 248.449219 180.539062 248.664062 180.539062 C 248.769531 180.539062 248.875 180.503906 248.980469 180.46875 L 293.203125 154.480469 C 293.453125 154.335938 293.523438 153.949219 293.382812 153.664062 Z M 167.472656 197.640625 C 167.15625 197.746094 166.980469 198.0625 167.050781 198.382812 C 167.121094 198.703125 167.472656 198.914062 167.792969 198.808594 C 168.714844 198.488281 169.667969 198.453125 170.625 198.488281 C 171.582031 198.558594 172.679688 198.738281 173.601562 199.160156 C 173.917969 199.269531 174.273438 199.234375 174.449219 198.914062 C 174.554688 198.667969 174.519531 198.171875 174.203125 198.0625 C 173.105469 197.570312 171.972656 197.320312 170.730469 197.285156 C 169.667969 197.214844 168.5 197.285156 167.472656 197.640625 Z M 182.132812 180.007812 C 182.203125 180.113281 182.453125 180.183594 182.558594 180.183594 C 182.664062 180.183594 182.875 180.113281 182.984375 180.007812 C 183.089844 179.902344 183.160156 179.757812 183.160156 179.582031 C 183.160156 179.40625 183.089844 179.261719 182.984375 179.15625 C 182.734375 178.839844 182.378906 178.660156 182.0625 178.625 C 181.707031 178.554688 181.320312 178.519531 180.964844 178.625 C 180.539062 178.730469 180.222656 178.945312 180.007812 179.300781 C 179.832031 179.546875 179.761719 179.828125 179.761719 180.148438 C 179.761719 180.46875 179.761719 180.679688 179.761719 181 C 179.761719 181.316406 180.078125 181.601562 180.363281 181.601562 C 180.609375 181.601562 180.859375 181.351562 180.859375 181 C 180.859375 180.75 180.859375 180.503906 180.859375 180.324219 C 180.859375 180.253906 180.859375 180.21875 180.859375 180.148438 C 180.859375 180.113281 180.859375 180.078125 180.859375 180.078125 C 180.859375 180.078125 180.859375 180.113281 180.859375 180.113281 C 180.859375 180.078125 180.859375 180.078125 180.859375 180.078125 L 180.859375 180.042969 C 180.859375 180.042969 180.859375 180.007812 180.894531 179.972656 C 180.894531 180.007812 180.859375 180.042969 180.859375 180.078125 C 180.859375 180.042969 180.894531 180.042969 180.894531 180.042969 L 180.894531 179.972656 C 180.894531 179.972656 180.964844 179.867188 180.894531 179.972656 L 180.964844 179.902344 C 180.964844 179.902344 181.035156 179.902344 181.035156 179.828125 C 181.035156 179.828125 181.105469 179.828125 181.105469 179.757812 C 181.105469 179.757812 181.105469 179.757812 181.175781 179.757812 C 181.175781 179.757812 181.210938 179.722656 181.175781 179.722656 L 181.28125 179.6875 C 181.28125 179.6875 181.320312 179.6875 181.355469 179.6875 C 181.425781 179.6875 181.460938 179.6875 181.53125 179.6875 L 181.601562 179.6875 C 181.671875 179.6875 181.707031 179.6875 181.777344 179.757812 C 181.851562 179.757812 181.851562 179.757812 181.886719 179.828125 C 181.957031 179.828125 181.992188 179.902344 182.0625 179.9375 Z M 180.859375 180.042969 Z M 187.941406 179.652344 C 188.046875 179.722656 188.117188 179.722656 188.257812 179.722656 L 188.363281 179.722656 C 188.433594 179.722656 188.542969 179.722656 188.613281 179.652344 C 188.683594 179.652344 188.71875 179.582031 188.789062 179.546875 C 188.859375 179.476562 188.894531 179.441406 188.894531 179.371094 C 188.964844 179.300781 188.964844 179.261719 188.964844 179.121094 C 188.964844 179.050781 188.964844 179.015625 188.964844 178.945312 C 188.964844 178.839844 188.894531 178.769531 188.789062 178.695312 C 188.71875 178.625 188.71875 178.625 188.683594 178.589844 C 188.578125 178.519531 188.507812 178.519531 188.363281 178.519531 L 188.257812 178.519531 C 188.1875 178.519531 188.082031 178.519531 188.011719 178.589844 C 187.941406 178.589844 187.902344 178.660156 187.832031 178.695312 C 187.761719 178.769531 187.726562 178.804688 187.726562 178.875 C 187.65625 178.945312 187.65625 178.980469 187.65625 179.121094 C 187.65625 179.191406 187.65625 179.226562 187.65625 179.300781 C 187.65625 179.40625 187.726562 179.476562 187.832031 179.546875 C 187.867188 179.582031 187.867188 179.582031 187.941406 179.652344 Z M 193.957031 183.300781 C 193.957031 183.195312 193.957031 183.121094 193.957031 183.050781 C 193.886719 182.945312 193.886719 182.804688 193.851562 182.699219 C 193.851562 182.699219 193.921875 182.769531 193.921875 182.804688 C 193.921875 182.769531 193.886719 182.664062 193.851562 182.589844 C 193.816406 182.554688 193.78125 182.554688 193.746094 182.554688 C 193.710938 182.519531 193.675781 182.519531 193.640625 182.519531 C 193.570312 182.484375 193.464844 182.449219 193.390625 182.449219 C 193.285156 182.449219 193.214844 182.449219 193.144531 182.449219 C 192.96875 182.449219 192.824219 182.378906 192.789062 182.273438 C 192.683594 182.167969 192.613281 182.023438 192.613281 181.847656 C 192.613281 181.742188 192.683594 181.53125 192.789062 181.421875 C 192.898438 181.316406 193.039062 181.246094 193.214844 181.246094 C 193.464844 181.246094 193.710938 181.246094 193.957031 181.316406 C 194.382812 181.421875 194.738281 181.742188 194.984375 182.097656 C 195.164062 182.449219 195.304688 182.875 195.234375 183.300781 C 195.234375 183.40625 195.234375 183.476562 195.164062 183.617188 C 195.09375 183.6875 195.09375 183.6875 195.054688 183.726562 C 194.949219 183.832031 194.808594 183.902344 194.632812 183.902344 C 194.527344 183.902344 194.3125 183.832031 194.207031 183.726562 C 193.996094 183.582031 193.957031 183.40625 193.957031 183.300781 Z M 193.746094 182.554688 Z M 193.851562 182.628906 C 193.851562 182.628906 193.816406 182.589844 193.816406 182.589844 C 193.816406 182.628906 193.816406 182.628906 193.851562 182.628906 Z M 193.570312 182.519531 C 193.570312 182.519531 193.640625 182.589844 193.675781 182.589844 C 193.675781 182.554688 193.640625 182.519531 193.570312 182.519531 C 193.605469 182.519531 193.605469 182.519531 193.570312 182.519531 Z M 141.59375 191.125 C 141.59375 191.089844 141.59375 191.089844 141.59375 191.125 C 141.664062 191.125 141.699219 191.089844 141.769531 191.054688 C 141.769531 191.054688 141.804688 191.019531 141.804688 191.019531 C 141.875 190.839844 141.910156 190.734375 142.050781 190.558594 C 142.230469 190.203125 142.652344 189.886719 143.078125 189.816406 C 144.035156 189.636719 145.027344 189.816406 145.875 190.238281 C 146.195312 190.417969 146.300781 190.839844 146.125 191.089844 C 145.945312 191.40625 145.59375 191.441406 145.273438 191.335938 C 144.957031 191.230469 144.671875 191.089844 144.316406 191.019531 C 144 190.949219 143.539062 190.914062 143.292969 191.019531 L 143.113281 191.089844 C 142.867188 191.300781 143.007812 191.230469 143.042969 191.195312 C 142.972656 191.300781 142.9375 191.40625 142.867188 191.515625 C 142.6875 191.832031 142.371094 192.046875 142.015625 192.1875 C 141.519531 192.292969 140.988281 192.257812 140.496094 192.257812 C 140.496094 192.257812 140.496094 192.257812 140.457031 192.257812 C 140.457031 192.257812 140.386719 192.257812 140.351562 192.257812 C 140.351562 192.292969 140.316406 192.292969 140.316406 192.328125 C 140.316406 192.328125 140.316406 192.363281 140.316406 192.398438 C 140.246094 192.503906 140.246094 192.648438 140.246094 192.824219 C 140.246094 193.601562 139.042969 193.601562 138.972656 192.929688 C 138.972656 192.152344 139.21875 191.371094 140 191.160156 C 140.351562 191.089844 140.601562 191.089844 140.882812 191.089844 C 141.0625 191.089844 141.203125 191.089844 141.308594 191.089844 C 141.414062 191.089844 141.484375 191.089844 141.554688 191.089844 C 141.59375 191.089844 141.59375 191.089844 141.59375 191.125 Z M 140.351562 192.292969 C 140.316406 192.363281 140.316406 192.328125 140.351562 192.292969 C 140.386719 192.1875 140.351562 192.257812 140.351562 192.292969 Z M 143.042969 191.195312 C 143.042969 191.195312 143.078125 191.160156 143.042969 191.195312 C 143.078125 191.160156 143.042969 191.195312 143.042969 191.195312 Z M 201.640625 201.710938 C 201.640625 201.640625 201.570312 201.640625 201.570312 201.605469 C 201.394531 201.355469 200.898438 201.355469 200.722656 201.605469 C 200.367188 201.851562 200.367188 202.207031 200.617188 202.453125 C 201.289062 203.234375 202.492188 203.199219 203.414062 202.984375 C 204.367188 202.808594 205.394531 202.453125 206.210938 201.886719 C 206.527344 201.710938 206.5625 201.355469 206.457031 201.039062 C 206.28125 200.789062 205.925781 200.613281 205.609375 200.789062 C 205.429688 200.898438 205.289062 200.96875 205.113281 201.109375 C 204.863281 201.214844 204.792969 201.285156 204.617188 201.355469 C 204.191406 201.535156 203.695312 201.675781 203.269531 201.78125 C 203.023438 201.851562 202.953125 201.851562 202.738281 201.851562 C 202.5625 201.851562 202.316406 201.851562 202.136719 201.851562 C 202.101562 201.851562 202.101562 201.851562 202.101562 201.851562 C 202.066406 201.851562 202.066406 201.851562 202.03125 201.851562 C 201.960938 201.851562 201.925781 201.851562 201.925781 201.78125 C 201.925781 201.78125 201.820312 201.710938 201.855469 201.78125 C 201.925781 201.851562 201.785156 201.78125 201.785156 201.78125 C 201.714844 201.746094 201.714844 201.710938 201.640625 201.710938 Z M 208.652344 199.339844 C 208.722656 199.410156 208.757812 199.410156 208.902344 199.410156 C 208.972656 199.410156 209.007812 199.410156 209.078125 199.410156 C 209.183594 199.410156 209.253906 199.339844 209.324219 199.234375 C 209.394531 199.160156 209.394531 199.160156 209.433594 199.125 C 209.433594 199.019531 209.503906 198.878906 209.503906 198.808594 L 209.503906 198.632812 C 209.503906 198.558594 209.503906 198.453125 209.433594 198.382812 C 209.433594 198.3125 209.359375 198.277344 209.324219 198.207031 C 209.253906 198.136719 209.21875 198.101562 209.148438 198.101562 C 209.078125 198.027344 209.042969 198.027344 208.902344 198.027344 C 208.828125 198.027344 208.792969 198.027344 208.722656 198.027344 C 208.617188 198.027344 208.546875 198.101562 208.476562 198.207031 L 208.371094 198.3125 C 208.296875 198.417969 208.296875 198.488281 208.296875 198.632812 L 208.296875 198.808594 C 208.296875 198.878906 208.296875 198.984375 208.371094 199.054688 C 208.371094 199.125 208.441406 199.160156 208.476562 199.234375 C 208.546875 199.269531 208.617188 199.339844 208.652344 199.339844 Z M 180.574219 207.800781 C 180.574219 207.800781 180.574219 207.835938 180.574219 207.800781 C 180.574219 207.835938 180.574219 207.835938 180.574219 207.800781 Z M 178.558594 206.667969 C 178.027344 206.84375 177.601562 207.199219 177.386719 207.765625 C 177.210938 208.296875 177.28125 208.933594 177.386719 209.464844 C 177.707031 210.207031 178.839844 209.890625 178.664062 209.109375 C 178.59375 208.792969 178.558594 208.4375 178.59375 208.15625 L 178.664062 208.050781 C 178.664062 208.050781 178.699219 208.011719 178.734375 207.976562 C 178.839844 207.871094 178.980469 207.871094 179.089844 207.800781 C 179.40625 207.695312 179.691406 207.695312 180.042969 207.730469 C 180.148438 207.730469 180.292969 207.800781 180.398438 207.800781 C 180.398438 207.800781 180.574219 207.871094 180.539062 207.871094 C 180.609375 207.90625 180.714844 207.976562 180.644531 207.90625 C 181.070312 208.261719 181.601562 208.011719 181.671875 207.484375 C 181.671875 207.445312 181.671875 207.410156 181.671875 207.410156 C 181.601562 207.519531 181.671875 207.339844 181.742188 207.339844 C 181.742188 207.304688 181.742188 207.304688 181.742188 207.304688 C 181.742188 207.304688 181.777344 207.304688 181.777344 207.304688 C 181.851562 207.234375 181.851562 207.234375 181.886719 207.199219 C 181.921875 207.164062 181.957031 207.128906 181.957031 207.128906 C 182.027344 207.058594 182.0625 207.058594 182.132812 207.023438 C 182.238281 206.953125 182.308594 206.953125 182.453125 206.917969 C 182.769531 206.84375 182.875 206.808594 183.195312 206.808594 C 183.300781 206.808594 183.441406 206.808594 183.550781 206.808594 C 183.585938 206.808594 183.585938 206.808594 183.585938 206.808594 C 183.65625 206.808594 183.691406 206.808594 183.761719 206.878906 C 184.503906 207.128906 184.859375 205.960938 184.082031 205.710938 C 182.949219 205.359375 181.320312 205.710938 180.679688 206.738281 C 180.007812 206.421875 179.230469 206.457031 178.558594 206.667969 Z M 188.71875 206.3125 C 187.941406 206.3125 187.941406 207.519531 188.71875 207.519531 C 189.496094 207.519531 189.53125 206.3125 188.71875 206.3125 Z M 225.613281 189.777344 C 225.507812 189.777344 225.292969 189.707031 225.1875 189.601562 C 225.082031 189.496094 225.011719 189.355469 225.011719 189.175781 C 225.011719 188.929688 225.082031 188.644531 225.1875 188.433594 C 225.292969 188.257812 225.507812 188.078125 225.683594 188.007812 C 225.929688 187.902344 226.109375 187.832031 226.355469 187.832031 C 226.460938 187.761719 226.675781 187.832031 226.851562 187.832031 C 227.027344 187.902344 227.171875 187.902344 227.347656 187.9375 C 227.667969 188.007812 227.84375 188.292969 227.773438 188.683594 C 227.703125 189 227.347656 189.210938 227.027344 189.105469 C 226.851562 189.035156 226.710938 189 226.605469 189 C 226.570312 189 226.535156 189 226.496094 189 C 226.390625 189 226.320312 189 226.25 189.035156 C 226.25 189.035156 226.25 189.070312 226.25 189.070312 C 226.25 189.175781 226.179688 189.390625 226.074219 189.601562 C 225.929688 189.707031 225.789062 189.777344 225.613281 189.777344 Z M 226.285156 188.964844 C 226.25 188.964844 226.25 188.964844 226.214844 188.964844 C 226.25 189 226.25 188.964844 226.285156 188.964844 Z M 226.109375 189.035156 C 226.179688 188.964844 226.179688 188.964844 226.214844 188.929688 C 226.179688 188.964844 226.109375 188.964844 226.109375 189.035156 Z M 237.722656 193.035156 C 237.757812 193.070312 237.722656 193.035156 237.722656 193.035156 Z M 237.6875 193.035156 C 237.6875 193.035156 237.652344 193.035156 237.652344 193 C 237.617188 193 237.617188 193 237.6875 193.035156 Z M 237.6875 189.886719 C 237.015625 189.355469 236.164062 189.390625 235.386719 189.390625 C 235.066406 189.390625 234.710938 189.460938 234.429688 189.285156 C 234.144531 189.105469 233.898438 188.859375 233.648438 188.609375 C 232.90625 188.007812 231.773438 187.65625 230.996094 188.363281 C 230.320312 188.789062 231.171875 189.636719 231.773438 189.140625 C 231.878906 189.035156 232.304688 189.210938 232.515625 189.25 C 232.835938 189.355469 233.011719 189.601562 233.261719 189.777344 C 233.792969 190.273438 234.429688 190.523438 235.207031 190.523438 C 235.738281 190.523438 236.375 190.453125 236.835938 190.628906 C 237.507812 190.949219 237.332031 191.796875 237.332031 192.398438 C 237.332031 192.683594 237.507812 192.859375 237.722656 192.964844 C 237.757812 192.964844 237.792969 193 237.828125 193 C 237.863281 193.035156 237.863281 193.035156 237.863281 193.035156 L 237.898438 193.070312 C 237.96875 193.144531 238.003906 193.179688 238.074219 193.25 C 238.074219 193.25 238.183594 193.425781 238.148438 193.355469 C 238.253906 193.460938 238.324219 193.675781 238.394531 193.78125 C 238.5 193.957031 238.5 194.027344 238.570312 194.207031 C 238.570312 194.277344 238.644531 194.3125 238.644531 194.453125 C 238.644531 194.523438 238.714844 194.699219 238.714844 194.628906 C 238.714844 194.664062 238.714844 194.734375 238.714844 194.734375 C 238.714844 194.734375 238.714844 194.773438 238.714844 194.773438 C 238.714844 194.773438 238.679688 194.773438 238.679688 194.773438 C 238.644531 194.773438 238.570312 194.773438 238.570312 194.773438 C 238.253906 194.699219 237.898438 194.84375 237.828125 195.195312 C 237.757812 195.515625 237.933594 195.941406 238.253906 195.941406 C 238.785156 196.011719 239.421875 195.941406 239.777344 195.445312 C 240.023438 195.019531 240.023438 194.523438 239.882812 194.0625 C 239.667969 193.355469 239.246094 192.539062 238.605469 192.082031 C 238.464844 191.300781 238.429688 190.488281 237.6875 189.886719 Z M 178.804688 188.683594 C 177.105469 189.53125 175.40625 190.238281 173.671875 190.984375 C 173.351562 191.089844 173.140625 191.40625 173.246094 191.726562 C 173.316406 192.046875 173.671875 192.328125 173.988281 192.222656 C 175.796875 191.480469 177.636719 190.699219 179.441406 189.816406 C 179.761719 189.707031 179.796875 189.285156 179.691406 188.964844 C 179.476562 188.609375 179.089844 188.539062 178.804688 188.683594 Z M 172.007812 192.011719 C 171.226562 192.011719 171.226562 193.214844 172.007812 193.214844 C 172.820312 193.214844 172.820312 192.011719 172.007812 192.011719 Z M 183.9375 198.773438 C 185.636719 199.304688 187.445312 199.691406 189.214844 199.871094 C 189.53125 199.941406 189.816406 199.550781 189.816406 199.269531 C 189.816406 198.914062 189.496094 198.738281 189.214844 198.667969 C 187.515625 198.488281 185.886719 198.136719 184.257812 197.640625 C 183.515625 197.320312 183.160156 198.558594 183.9375 198.773438 Z M 217.609375 194.488281 C 217.929688 194.488281 218.210938 194.167969 218.210938 193.886719 C 218.210938 193.601562 217.894531 193.285156 217.609375 193.285156 C 216.265625 193.285156 214.992188 192.613281 213.785156 191.9375 C 213.46875 191.761719 213.113281 191.867188 212.9375 192.1875 C 212.761719 192.433594 212.867188 192.859375 213.183594 192.964844 C 214.601562 193.78125 215.980469 194.488281 217.609375 194.488281 Z M 156.746094 186.238281 C 157.773438 185.8125 158.871094 185.316406 159.898438 184.894531 C 160.074219 184.824219 160.214844 184.785156 160.25 184.574219 C 160.320312 184.46875 160.359375 184.253906 160.320312 184.078125 C 160.25 183.761719 159.898438 183.546875 159.578125 183.652344 C 158.550781 184.078125 157.453125 184.574219 156.425781 185 C 156.25 185.070312 156.109375 185.105469 156.074219 185.316406 C 156.003906 185.425781 155.96875 185.636719 156.003906 185.8125 C 156.074219 186.132812 156.460938 186.378906 156.746094 186.238281 Z M 137.875 202.417969 C 138.191406 202.417969 138.476562 202.171875 138.476562 201.816406 C 138.476562 201.5 138.226562 201.214844 137.875 201.214844 C 137.128906 201.285156 136.421875 201.320312 135.679688 201.394531 C 135.359375 201.394531 135.078125 201.640625 135.078125 201.996094 C 135.078125 202.3125 135.324219 202.597656 135.679688 202.597656 C 136.421875 202.5625 137.128906 202.488281 137.875 202.417969 Z M 155.71875 204.542969 C 155.046875 204.863281 154.375 205.074219 153.738281 205.394531 C 153.558594 205.464844 153.417969 205.5 153.382812 205.710938 C 153.3125 205.820312 153.277344 206.03125 153.3125 206.207031 C 153.382812 206.3125 153.417969 206.527344 153.628906 206.5625 C 153.738281 206.667969 153.949219 206.667969 154.125 206.632812 C 154.796875 206.3125 155.472656 206.101562 156.109375 205.78125 C 156.285156 205.710938 156.425781 205.675781 156.460938 205.464844 C 156.535156 205.359375 156.570312 205.144531 156.535156 204.96875 C 156.460938 204.863281 156.425781 204.648438 156.214844 204.613281 C 156.074219 204.542969 155.894531 204.472656 155.71875 204.542969 Z M 224.65625 204.011719 C 223.914062 204.507812 223.132812 204.933594 222.425781 205.394531 C 222.179688 205.570312 222 205.925781 222.179688 206.242188 C 222.355469 206.5625 222.710938 206.667969 223.027344 206.492188 C 223.773438 205.996094 224.550781 205.570312 225.257812 205.109375 C 225.507812 204.933594 225.683594 204.578125 225.507812 204.261719 C 225.328125 204.011719 224.941406 203.800781 224.65625 204.011719 Z M 224.65625 204.011719 " fill-opacity="1" fill-rule="nonzero"/><g clip-path="url(#a53aa28b91)"><path stroke-linecap="round" transform="matrix(0.154422, 0, 0, 0.154654, 143.012822, 108.492655)" fill="none" stroke-linejoin="miter" d="M 308.426303 611.999045 L 308.426303 93.426429 " stroke="#000000" stroke-width="10" stroke-opacity="1" stroke-miterlimit="10"/></g><g clip-path="url(#f52dd7befe)"><path fill="#ed1c24" d="M 191.441406 122.941406 C 191.441406 122.941406 191.441406 127.460938 212.03125 127.175781 C 232.617188 126.894531 231.492188 130.285156 231.492188 130.285156 C 231.492188 130.285156 223.921875 128.871094 213.746094 134.804688 C 203.566406 140.734375 191.441406 139.039062 191.441406 139.039062 " fill-opacity="1" fill-rule="nonzero"/></g><g fill="#000000" fill-opacity="1"><g transform="translate(121.068633, 249.15487)"><g><path d="M 8.25 -13.71875 L 0.484375 0.28125 L 3.71875 2.015625 L 7.046875 -3.90625 L 9.75 -2.53125 L 11 -5.375 L 8.234375 -6.921875 L 9.53125 -9.21875 L 13.609375 -6.921875 L 15.09375 -9.796875 Z M 8.25 -13.71875 "/></g></g></g><g fill="#000000" fill-opacity="1"><g transform="translate(129.688819, 254.080676)"><g><path d="M 17.046875 -7.796875 L 12.015625 5.21875 L 1 0.46875 L 3.515625 -6.90625 L 11.109375 -4.34375 L 11.78125 -6.265625 L 6.625 -8.1875 L 7.8125 -11.3125 Z M 6.078125 -3.515625 L 4.953125 -1.0625 L 8.90625 0.765625 L 10.015625 -1.671875 Z M 6.078125 -3.515625 "/></g></g></g><g fill="#000000" fill-opacity="1"><g transform="translate(143.311592, 259.995839)"><g><path d="M 3.921875 -12.078125 L 4.875 1.375 L 9.34375 2.625 L 18.25 -7.84375 L 13.125 -9.375 L 8.8125 -3.09375 L 8.546875 -10.765625 Z M 3.921875 -12.078125 "/></g></g></g><g fill="#000000" fill-opacity="1"><g transform="translate(159.823154, 264.483803)"><g/></g></g><g fill="#000000" fill-opacity="1"><g transform="translate(173.756003, 266.958856)"><g><path d="M 0.109375 -15.703125 L 0.703125 -0.015625 L 5.203125 -0.265625 L 5.09375 -12.4375 L 10.703125 -12.390625 L 10.84375 -0.25 L 13.921875 -0.453125 L 13.34375 -12.21875 L 19.765625 -11.953125 L 20.03125 -0.59375 L 24.625 -0.421875 L 23.84375 -15.453125 Z M 0.109375 -15.703125 "/></g></g></g><g fill="#000000" fill-opacity="1"><g transform="translate(200.468973, 265.696731)"><g><path d="M 4.25 -5.90625 L 4.8125 -4.09375 L 11.4375 -5.40625 L 12.40625 -2.5625 L 1.171875 -0.234375 L -1.984375 -12.375 L 9.5 -14.875 L 11.515625 -7.640625 Z M 3.375 -8.453125 L 7.390625 -9.484375 L 6.734375 -11.65625 L 2.640625 -10.75 Z M 3.375 -8.453125 "/></g></g></g><g fill="#000000" fill-opacity="1"><g transform="translate(214.601103, 262.819657)"><g><path d="M 7.53125 -17.15625 L 12.4375 -4.09375 L 1.0625 -0.3125 L -1.984375 -7.484375 L 5.390625 -10.640625 L 4.625 -12.515625 L -0.5 -10.515625 L -1.703125 -13.65625 Z M 2.203125 -6.671875 L 3 -4.109375 L 7.15625 -5.359375 L 6.375 -7.90625 Z M 2.203125 -6.671875 "/></g></g></g><g fill="#000000" fill-opacity="1"><g transform="translate(228.207785, 258.118239)"><g><path d="M -5.65625 -15.265625 L 0.40625 -0.265625 L 4.6875 -2.015625 L -1.578125 -17.171875 Z M -5.65625 -15.265625 "/></g></g></g><g fill="#000000" fill-opacity="1"><g transform="translate(234.367948, 255.603021)"><g><path d="M -5.65625 -11.5 L -1.9375 -4.953125 L 4.5 -8.25 L 5.5625 -6.1875 L -0.8125 -3.015625 L 0.421875 -0.171875 L 11.234375 -5.984375 L 7.65625 -12.46875 L 1.328125 -9.59375 L 0.375 -11.625 L 6.484375 -14.90625 L 4.90625 -17.46875 Z M -5.65625 -11.5 "/></g></g></g><g fill="#ffffff" fill-opacity="1"><g transform="translate(162.090639, 288.264444)"><g><path d="M 2.109375 -2.828125 L 2.109375 -1.0625 L 5.171875 -1.0625 L 5.171875 0 L 0.828125 0 L 0.828125 -6.421875 L 5.109375 -6.421875 L 5.109375 -5.359375 L 2.109375 -5.359375 L 2.109375 -3.859375 L 4.71875 -3.859375 L 4.71875 -2.828125 Z M 2.109375 -2.828125 "/></g></g><g transform="translate(167.614565, 288.264444)"><g><path d="M 2.84375 0.09375 C 2.40625 0.09375 2.007812 0.0390625 1.65625 -0.0625 C 1.3125 -0.175781 1.019531 -0.320312 0.78125 -0.5 C 0.550781 -0.6875 0.378906 -0.882812 0.265625 -1.09375 L 0.953125 -1.953125 L 1.0625 -1.953125 C 1.257812 -1.660156 1.503906 -1.425781 1.796875 -1.25 C 2.097656 -1.082031 2.445312 -1 2.84375 -1 C 3.1875 -1 3.441406 -1.070312 3.609375 -1.21875 C 3.785156 -1.363281 3.875 -1.5625 3.875 -1.8125 C 3.875 -1.96875 3.84375 -2.09375 3.78125 -2.1875 C 3.726562 -2.289062 3.640625 -2.378906 3.515625 -2.453125 C 3.390625 -2.535156 3.21875 -2.601562 3 -2.65625 L 2.171875 -2.84375 C 1.585938 -2.96875 1.15625 -3.179688 0.875 -3.484375 C 0.59375 -3.796875 0.453125 -4.195312 0.453125 -4.6875 C 0.453125 -5.050781 0.539062 -5.367188 0.71875 -5.640625 C 0.90625 -5.921875 1.171875 -6.132812 1.515625 -6.28125 C 1.867188 -6.4375 2.285156 -6.515625 2.765625 -6.515625 C 3.253906 -6.515625 3.675781 -6.445312 4.03125 -6.3125 C 4.382812 -6.1875 4.6875 -5.988281 4.9375 -5.71875 L 4.296875 -4.859375 L 4.1875 -4.859375 C 4.007812 -5.046875 3.800781 -5.1875 3.5625 -5.28125 C 3.332031 -5.382812 3.066406 -5.4375 2.765625 -5.4375 C 2.410156 -5.4375 2.144531 -5.375 1.96875 -5.25 C 1.789062 -5.125 1.703125 -4.953125 1.703125 -4.734375 C 1.703125 -4.535156 1.765625 -4.375 1.890625 -4.25 C 2.015625 -4.132812 2.234375 -4.039062 2.546875 -3.96875 L 3.390625 -3.796875 C 4.015625 -3.660156 4.46875 -3.4375 4.75 -3.125 C 5.03125 -2.8125 5.171875 -2.398438 5.171875 -1.890625 C 5.171875 -1.492188 5.082031 -1.144531 4.90625 -0.84375 C 4.738281 -0.550781 4.476562 -0.320312 4.125 -0.15625 C 3.78125 0.0078125 3.351562 0.09375 2.84375 0.09375 Z M 2.84375 0.09375 "/></g></g><g transform="translate(173.134095, 288.264444)"><g><path d="M 5.15625 -6.421875 L 5.15625 -5.359375 L 3.296875 -5.359375 L 3.296875 0 L 2.03125 0 L 2.03125 -5.359375 L 0.171875 -5.359375 L 0.171875 -6.421875 Z M 5.15625 -6.421875 "/></g></g><g transform="translate(178.460267, 288.264444)"><g><path d="M 1.234375 0.046875 C 1.078125 0.046875 0.941406 0.015625 0.828125 -0.046875 C 0.710938 -0.117188 0.625 -0.207031 0.5625 -0.3125 C 0.5 -0.425781 0.46875 -0.550781 0.46875 -0.6875 C 0.46875 -0.832031 0.5 -0.957031 0.5625 -1.0625 C 0.625 -1.175781 0.710938 -1.265625 0.828125 -1.328125 C 0.941406 -1.398438 1.078125 -1.4375 1.234375 -1.4375 C 1.398438 -1.4375 1.539062 -1.40625 1.65625 -1.34375 C 1.769531 -1.28125 1.859375 -1.191406 1.921875 -1.078125 C 1.984375 -0.960938 2.015625 -0.835938 2.015625 -0.703125 C 2.015625 -0.484375 1.941406 -0.300781 1.796875 -0.15625 C 1.660156 -0.0195312 1.472656 0.046875 1.234375 0.046875 Z M 1.234375 0.046875 "/></g></g><g transform="translate(180.943177, 288.264444)"><g/></g><g transform="translate(183.065735, 288.264444)"><g><path d="M 0.34375 0 L 0.34375 -1.046875 L 1.890625 -1.046875 L 1.890625 -5.046875 L 1.78125 -5.078125 C 1.5625 -4.972656 1.347656 -4.890625 1.140625 -4.828125 C 0.929688 -4.765625 0.6875 -4.71875 0.40625 -4.6875 L 0.40625 -5.765625 C 1.125 -5.910156 1.703125 -6.128906 2.140625 -6.421875 L 3.140625 -6.421875 L 3.140625 -1.046875 L 4.53125 -1.046875 L 4.53125 0 Z M 0.34375 0 "/></g></g><g transform="translate(187.807434, 288.264444)"><g><path d="M 2.6875 0.09375 C 2.082031 0.09375 1.601562 -0.0234375 1.25 -0.265625 C 0.90625 -0.515625 0.671875 -0.859375 0.546875 -1.296875 L 1.515625 -1.734375 L 1.625 -1.71875 C 1.789062 -1.226562 2.140625 -0.984375 2.671875 -0.984375 C 3.097656 -0.984375 3.414062 -1.15625 3.625 -1.5 C 3.84375 -1.84375 3.953125 -2.363281 3.953125 -3.0625 L 3.875 -3.09375 C 3.726562 -2.8125 3.535156 -2.597656 3.296875 -2.453125 C 3.054688 -2.316406 2.75 -2.25 2.375 -2.25 C 2 -2.25 1.664062 -2.332031 1.375 -2.5 C 1.082031 -2.664062 0.851562 -2.90625 0.6875 -3.21875 C 0.53125 -3.539062 0.453125 -3.914062 0.453125 -4.34375 C 0.453125 -4.78125 0.546875 -5.160156 0.734375 -5.484375 C 0.921875 -5.816406 1.1875 -6.070312 1.53125 -6.25 C 1.875 -6.425781 2.273438 -6.515625 2.734375 -6.515625 C 3.523438 -6.515625 4.144531 -6.265625 4.59375 -5.765625 C 5.039062 -5.265625 5.265625 -4.453125 5.265625 -3.328125 C 5.265625 -2.566406 5.160156 -1.929688 4.953125 -1.421875 C 4.753906 -0.910156 4.460938 -0.53125 4.078125 -0.28125 C 3.691406 -0.03125 3.226562 0.09375 2.6875 0.09375 Z M 2.765625 -3.28125 C 3.097656 -3.28125 3.359375 -3.378906 3.546875 -3.578125 C 3.742188 -3.773438 3.84375 -4.035156 3.84375 -4.359375 C 3.84375 -4.691406 3.75 -4.953125 3.5625 -5.140625 C 3.375 -5.335938 3.109375 -5.4375 2.765625 -5.4375 C 2.441406 -5.4375 2.1875 -5.34375 2 -5.15625 C 1.820312 -4.96875 1.734375 -4.703125 1.734375 -4.359375 C 1.734375 -4.015625 1.820312 -3.75 2 -3.5625 C 2.1875 -3.375 2.441406 -3.28125 2.765625 -3.28125 Z M 2.765625 -3.28125 "/></g></g><g transform="translate(193.617004, 288.264444)"><g><path d="M 2.6875 0.09375 C 2.082031 0.09375 1.601562 -0.0234375 1.25 -0.265625 C 0.90625 -0.515625 0.671875 -0.859375 0.546875 -1.296875 L 1.515625 -1.734375 L 1.625 -1.71875 C 1.789062 -1.226562 2.140625 -0.984375 2.671875 -0.984375 C 3.097656 -0.984375 3.414062 -1.15625 3.625 -1.5 C 3.84375 -1.84375 3.953125 -2.363281 3.953125 -3.0625 L 3.875 -3.09375 C 3.726562 -2.8125 3.535156 -2.597656 3.296875 -2.453125 C 3.054688 -2.316406 2.75 -2.25 2.375 -2.25 C 2 -2.25 1.664062 -2.332031 1.375 -2.5 C 1.082031 -2.664062 0.851562 -2.90625 0.6875 -3.21875 C 0.53125 -3.539062 0.453125 -3.914062 0.453125 -4.34375 C 0.453125 -4.78125 0.546875 -5.160156 0.734375 -5.484375 C 0.921875 -5.816406 1.1875 -6.070312 1.53125 -6.25 C 1.875 -6.425781 2.273438 -6.515625 2.734375 -6.515625 C 3.523438 -6.515625 4.144531 -6.265625 4.59375 -5.765625 C 5.039062 -5.265625 5.265625 -4.453125 5.265625 -3.328125 C 5.265625 -2.566406 5.160156 -1.929688 4.953125 -1.421875 C 4.753906 -0.910156 4.460938 -0.53125 4.078125 -0.28125 C 3.691406 -0.03125 3.226562 0.09375 2.6875 0.09375 Z M 2.765625 -3.28125 C 3.097656 -3.28125 3.359375 -3.378906 3.546875 -3.578125 C 3.742188 -3.773438 3.84375 -4.035156 3.84375 -4.359375 C 3.84375 -4.691406 3.75 -4.953125 3.5625 -5.140625 C 3.375 -5.335938 3.109375 -5.4375 2.765625 -5.4375 C 2.441406 -5.4375 2.1875 -5.34375 2 -5.15625 C 1.820312 -4.96875 1.734375 -4.703125 1.734375 -4.359375 C 1.734375 -4.015625 1.820312 -3.75 2 -3.5625 C 2.1875 -3.375 2.441406 -3.28125 2.765625 -3.28125 Z M 2.765625 -3.28125 "/></g></g><g transform="translate(199.426574, 288.264444)"><g><path d="M 2.6875 0.09375 C 2.082031 0.09375 1.601562 -0.0234375 1.25 -0.265625 C 0.90625 -0.515625 0.671875 -0.859375 0.546875 -1.296875 L 1.515625 -1.734375 L 1.625 -1.71875 C 1.789062 -1.226562 2.140625 -0.984375 2.671875 -0.984375 C 3.097656 -0.984375 3.414062 -1.15625 3.625 -1.5 C 3.84375 -1.84375 3.953125 -2.363281 3.953125 -3.0625 L 3.875 -3.09375 C 3.726562 -2.8125 3.535156 -2.597656 3.296875 -2.453125 C 3.054688 -2.316406 2.75 -2.25 2.375 -2.25 C 2 -2.25 1.664062 -2.332031 1.375 -2.5 C 1.082031 -2.664062 0.851562 -2.90625 0.6875 -3.21875 C 0.53125 -3.539062 0.453125 -3.914062 0.453125 -4.34375 C 0.453125 -4.78125 0.546875 -5.160156 0.734375 -5.484375 C 0.921875 -5.816406 1.1875 -6.070312 1.53125 -6.25 C 1.875 -6.425781 2.273438 -6.515625 2.734375 -6.515625 C 3.523438 -6.515625 4.144531 -6.265625 4.59375 -5.765625 C 5.039062 -5.265625 5.265625 -4.453125 5.265625 -3.328125 C 5.265625 -2.566406 5.160156 -1.929688 4.953125 -1.421875 C 4.753906 -0.910156 4.460938 -0.53125 4.078125 -0.28125 C 3.691406 -0.03125 3.226562 0.09375 2.6875 0.09375 Z M 2.765625 -3.28125 C 3.097656 -3.28125 3.359375 -3.378906 3.546875 -3.578125 C 3.742188 -3.773438 3.84375 -4.035156 3.84375 -4.359375 C 3.84375 -4.691406 3.75 -4.953125 3.5625 -5.140625 C 3.375 -5.335938 3.109375 -5.4375 2.765625 -5.4375 C 2.441406 -5.4375 2.1875 -5.34375 2 -5.15625 C 1.820312 -4.96875 1.734375 -4.703125 1.734375 -4.359375 C 1.734375 -4.015625 1.820312 -3.75 2 -3.5625 C 2.1875 -3.375 2.441406 -3.28125 2.765625 -3.28125 Z M 2.765625 -3.28125 "/></g></g></g></svg>